<svg width="98" height="100" viewBox="0 0 98 100" fill="none" xmlns="http://www.w3.org/2000/svg">
<path d="M97.3536 96.3536C97.5488 96.1583 97.5488 95.8417 97.3536 95.6464L94.1716 92.4645C93.9763 92.2692 93.6597 92.2692 93.4645 92.4645C93.2692 92.6597 93.2692 92.9763 93.4645 93.1716L96.2929 96L93.4645 98.8284C93.2692 99.0237 93.2692 99.3403 93.4645 99.5355C93.6597 99.7308 93.9763 99.7308 94.1716 99.5355L97.3536 96.3536ZM1 0C0.5 0 0.5 2.95589e-05 0.5 6.31253e-05C0.5 7.96608e-05 0.5 0.000117245 0.5 0.000150316C0.5 0.000216463 0.5 0.000298648 0.5 0.000396856C0.5 0.000593273 0.5 0.000853787 0.500001 0.00117829C0.500001 0.0018273 0.500002 0.00273228 0.500004 0.00389239C0.500008 0.00621261 0.500015 0.00955335 0.50003 0.0139079C0.500058 0.022617 0.500115 0.0353814 0.500226 0.0521474C0.500448 0.0856793 0.500889 0.135218 0.501763 0.200334C0.503512 0.330565 0.506996 0.523109 0.513936 0.774528C0.527815 1.27736 0.555517 2.01573 0.610814 2.96213L1.60911 2.9038C1.55445 1.9682 1.52717 1.24009 1.51356 0.746937C1.50675 0.500365 1.50336 0.312543 1.50167 0.186905C1.50083 0.124087 1.50041 0.0768158 1.5002 0.0455215C1.5001 0.0298744 1.50005 0.0182215 1.50002 0.0106167C1.50001 0.00681428 1.50001 0.00402387 1.5 0.00225218C1.5 0.00136634 1.5 0.000735172 1.5 0.000359528C1.5 0.000171707 1.5 4.77653e-05 1.5 -1.21912e-05C1.5 -4.21694e-05 1.5 -5.61513e-05 1.5 -5.41238e-05C1.5 -5.31124e-05 1.5 -3.95762e-05 1.5 -3.90739e-05C1.5 -2.15407e-05 1.5 0 1 0ZM0.835029 5.97845C0.986491 7.67656 1.20645 9.6897 1.52589 11.956L2.5161 11.8164C2.19922 9.56828 1.98115 7.57212 1.83107 5.88961L0.835029 5.97845ZM1.97947 14.9176C2.28325 16.7551 2.64944 18.719 3.09086 20.7836L4.06876 20.5745C3.6308 18.5261 3.26748 16.5776 2.96608 14.7545L1.97947 14.9176ZM3.75334 23.7122C4.2004 25.585 4.70895 27.5251 5.28745 29.5158L6.24772 29.2367C5.67398 27.2624 5.16953 25.3379 4.72601 23.48L3.75334 23.7122ZM6.15861 32.3803C6.74973 34.2401 7.40266 36.1355 8.12388 38.0535L9.0599 37.7016C8.34507 35.8005 7.69777 33.9215 7.11163 32.0774L6.15861 32.3803ZM9.2167 40.8454C9.95756 42.665 10.7615 44.4992 11.6338 46.3373L12.5373 45.9086C11.6733 44.0883 10.877 42.2713 10.1429 40.4683L9.2167 40.8454ZM12.9632 49.0353C13.861 50.791 14.8236 52.5457 15.8556 54.2898L16.7163 53.7805C15.6951 52.0548 14.7424 50.3183 13.8536 48.58L12.9632 49.0353ZM17.4302 56.8559C18.4923 58.5254 19.6212 60.1809 20.8209 61.8141L21.6268 61.222C20.4408 59.6075 19.3245 57.9705 18.274 56.3191L17.4302 56.8559ZM22.6334 64.1943C23.8599 65.7481 25.1544 67.2773 26.5208 68.7743L27.2594 68.1001C25.9096 66.6214 24.6305 65.1104 23.4184 63.5747L22.6334 64.1943ZM28.5883 70.9576C29.9739 72.3679 31.4279 73.7447 32.9537 75.0813L33.6127 74.3291C32.1061 73.0093 30.6702 71.6496 29.3016 70.2568L28.5883 70.9576ZM35.2514 77.0187C36.7846 78.2625 38.3853 79.4661 40.0566 80.6236L40.626 79.8016C38.9758 78.6586 37.3953 77.4702 35.8815 76.2421L35.2514 77.0187ZM42.5557 82.2856C44.2167 83.3457 45.943 84.361 47.7374 85.3264L48.2112 84.4458C46.4388 83.4922 44.7338 82.4894 43.0937 81.4427L42.5557 82.2856ZM50.4029 86.6986C52.1647 87.5655 53.9885 88.3854 55.8764 89.154L56.2534 88.2278C54.3873 87.4681 52.585 86.6578 50.8444 85.8013L50.4029 86.6986ZM58.7053 90.2489C60.5435 90.9244 62.4396 91.5525 64.3952 92.1293L64.6781 91.1702C62.7432 90.5994 60.8678 89.9782 59.0502 89.3103L58.7053 90.2489ZM67.2654 92.9276C69.1672 93.4251 71.1228 93.8754 73.1338 94.2755L73.3289 93.2947C71.3371 92.8984 69.4008 92.4526 67.5185 91.9602L67.2654 92.9276ZM76.0507 94.8135C77.9837 95.1426 79.9659 95.4263 81.9985 95.6622L82.1138 94.6688C80.0985 94.435 78.1338 94.1537 76.2186 93.8277L76.0507 94.8135ZM84.9678 95.9691C86.9168 96.1464 88.9106 96.2806 90.9501 96.3697L90.9938 95.3707C88.9696 95.2822 86.9915 95.149 85.0584 94.9733L84.9678 95.9691ZM93.9426 96.4672C94.9509 96.489 95.97 96.5 97 96.5V95.5C95.9771 95.5 94.9652 95.4891 93.9642 95.4674L93.9426 96.4672Z" fill="url(#paint0_linear_927_14146)"/>
<defs>
<linearGradient id="paint0_linear_927_14146" x1="49" y1="0" x2="49" y2="96" gradientUnits="userSpaceOnUse">
<stop stop-opacity="0"/>
<stop offset="1" stop-color="#211E1C"/>
</linearGradient>
</defs>
</svg>
