<svg width="28" height="28" viewBox="0 0 28 28" fill="none" xmlns="http://www.w3.org/2000/svg">
<path d="M12.6 11.2H15.4V15.4H19.6V18.2H15.4V22.4H12.6V18.2H8.4V15.4H12.6V11.2Z" fill="#FF8383"/>
<path fill-rule="evenodd" clip-rule="evenodd" d="M19.6 5.6H25.2C26.74 5.6 28 6.86 28 8.4V25.2C28 26.74 26.74 28 25.2 28H2.8C1.26 28 0 26.74 0 25.2V8.4C0 6.86 1.26 5.6 2.8 5.6H8.4V2.8C8.4 1.26 9.66 0 11.2 0H16.8C18.34 0 19.6 1.26 19.6 2.8V5.6ZM16.8 2.8H11.2V5.6H16.8V2.8ZM2.8 25.2H25.2V8.4H2.8V25.2Z" fill="#FF8383"/>
</svg>
