<svg width="24" height="20" viewBox="0 0 24 20" fill="none" xmlns="http://www.w3.org/2000/svg">
<path d="M1.64987 8.56244C8.09231 5.75558 12.3883 3.90512 14.5378 3.01107C20.675 0.45837 21.9503 0.0149404 22.7815 0.000141954C22.9643 -0.00292234 23.3731 0.0423843 23.6379 0.257234C23.8614 0.438648 23.9229 0.683713 23.9524 0.855714C23.9818 1.02771 24.0185 1.41954 23.9893 1.7257C23.6567 5.22014 22.2177 13.7002 21.4856 17.6141C21.1758 19.2702 20.5658 19.8254 19.9753 19.8798C18.6919 19.9979 17.7174 19.0317 16.4744 18.2169C14.5294 16.9419 13.4305 16.1482 11.5425 14.904C9.36064 13.4662 10.7751 12.6759 12.0185 11.3844C12.344 11.0464 17.9985 5.90319 18.1079 5.43662C18.1216 5.37827 18.1343 5.16076 18.0051 5.04591C17.8759 4.93105 17.6851 4.97033 17.5475 5.00156C17.3524 5.04584 14.2452 7.0996 8.22584 11.1628C7.34386 11.7685 6.54499 12.0636 5.82924 12.0481C5.04017 12.0311 3.52233 11.602 2.39397 11.2352C1.00999 10.7853 -0.0899675 10.5474 0.00581422 9.7834C0.0557033 9.38545 0.603724 8.97846 1.64987 8.56244Z" fill="white"/>
</svg>
