<svg width="22" height="20" viewBox="0 0 22 20" fill="none" xmlns="http://www.w3.org/2000/svg">
<path d="M22 10.3324V9.66759C21.7277 9.37212 20.8655 8.50416 19.4134 7.06371L16.3094 4.01662L12.5248 0.0554017L12.198 0L11.1906 0.720222L11.1361 1.02493C14.5487 5.5494 16.6543 8.54109 17.453 10C16.9992 10.7572 16.0916 12.1145 14.7302 14.072C13.3507 16.0295 12.1526 17.6639 11.1361 18.9751L11.1906 19.2798L12.198 20L12.5248 19.9446C15.0116 17.3407 17.2805 15.0231 19.3317 12.9917L22 10.3324ZM10.8366 10.3324V9.66759C10.5644 9.37212 9.70215 8.50416 8.25 7.06371L5.17327 4.01662L1.36139 0.0554017L1.03465 0L0.0272293 0.720222L0 1.02493C3.39439 5.5494 5.49092 8.54109 6.2896 10C5.85396 10.7572 4.94637 12.1145 3.56683 14.072C2.18729 16.0295 0.99835 17.6639 0 18.9751L0.0272293 19.2798L1.03465 20L1.36139 19.9446C3.86634 17.3407 6.14439 15.0231 8.19555 12.9917L10.8366 10.3324Z" fill="#A1C74F"/>
</svg>
