<svg width="42" height="56" viewBox="0 0 42 56" fill="none" xmlns="http://www.w3.org/2000/svg">
<path d="M25.7423 36.0985C24.4906 32.3293 22.4816 29.8602 20.1782 28.2731L20.2514 28.217C26.2338 24.1173 26.5794 16.8635 26.349 14.1666C25.6578 6.3238 19.1072 1.40274 9.22349 1.99174L9.07559 2.00922C6.99815 2.25592 1.9192 2.85914 0.00789131 0C-0.329967 15.6855 10.2448 20.2579 19.445 18.8474C20.2514 6.3238 5.07648 6.3238 5.07648 6.3238C16.2272 4.21595 21.8641 9.8655 22.6705 14.5154C23.1312 17.2122 22.6705 21.8931 20.1362 24.8225C19.4138 25.641 18.5749 26.3419 17.6494 26.9036C15.3238 25.94 12.8805 25.6363 10.7133 25.6363V26.1478C14.9678 26.1478 16.6036 29.9762 19.3605 36.61V36.6255C19.5448 37.069 19.7346 37.5403 19.9332 38.0331L19.9407 38.0519C22.7048 44.9165 27.1679 56 42 56V55.6202C32.3411 55.6202 28.802 45.1499 25.9534 36.7227L25.7423 36.0985Z" fill="white" fill-opacity="0.32"/>
<path d="M4.38527 30.6737C5.80892 31.5242 7.36795 32.1195 8.99301 32.4329V42.6162H4.38527V30.6737Z" fill="white" fill-opacity="0.32"/>
<path d="M4.38527 28.0971V17.096C6.11317 18.2663 7.3726 19.0799 8.99301 19.4209V29.0807C10.4674 29.1235 11.9435 28.9406 13.3704 28.5347C13.8843 29.177 14.3104 29.886 14.6376 30.6426C13.6059 30.7779 12.5675 30.8555 11.5274 30.8752C9.37317 30.9174 7.23424 30.5016 5.24964 29.6552C3.26503 28.8087 1.47909 27.5503 0.00789131 25.9617V25.5278C1.29485 26.4461 2.77261 27.414 4.38527 28.0971Z" fill="white" fill-opacity="0.32"/>
</svg>
