<svg width="23" height="20" viewBox="0 0 23 20" fill="none" xmlns="http://www.w3.org/2000/svg">
<path fill-rule="evenodd" clip-rule="evenodd" d="M6.08862 18.9907C6.12419 18.98 6.15657 18.9717 6.18333 18.9667C8.54411 18.5613 11.0146 17.2334 13.2039 15.4249C15.381 13.627 17.2781 11.3587 18.5215 9.03268C17.3803 11.4512 15.5728 13.8466 13.464 15.788C11.2781 17.8 8.76835 19.3123 6.33474 19.8765C6.32014 19.8791 6.30367 19.8835 6.28608 19.8876C13.9285 20.5346 18.5351 18.3162 20.9184 14.9973C23.3383 11.6285 23.4998 7.08985 22.1653 3.07693C22.0886 2.84653 21.8627 2.72225 21.6496 2.79347C15.7695 4.764 13.2022 6.67158 11.9023 8.56367C11.0188 9.84878 10.7081 11.1366 10.3766 12.4671C9.87018 14.4986 9.29031 16.6283 6.08901 18.991L6.08862 18.9907Z" fill="#A1C74F"/>
<path fill-rule="evenodd" clip-rule="evenodd" d="M7.73072 16.2675C8.69425 15.0901 9.10248 13.971 9.39726 12.8861C7.34793 10.9684 5.59457 8.62463 4.47829 6.25921C5.6685 8.48595 7.45803 10.6602 9.51944 12.4194C9.53572 12.3542 9.5522 12.2885 9.56848 12.2233C9.92728 10.7834 10.2788 9.39688 11.2343 8.00623C11.4188 7.73765 11.6275 7.46742 11.8649 7.19656C10.8661 4.82015 8.6521 2.46667 1.35036 0.0200205C1.13736 -0.0512058 0.911445 0.0732829 0.834694 0.303472C-0.45753 4.18982 -0.347277 8.56873 1.8585 11.9009C3.10166 13.7794 5.01304 15.3327 7.73098 16.2673L7.73072 16.2675Z" fill="#CFDE72"/>
</svg>
