<svg width="160" height="80" viewBox="0 0 160 80" fill="none" xmlns="http://www.w3.org/2000/svg">
<path fill-rule="evenodd" clip-rule="evenodd" d="M5.91455 40.6555C7.8347 41.7829 9.93729 42.5718 12.129 42.9872V56.4843H5.91455V40.6555Z" fill="white"/>
<path fill-rule="evenodd" clip-rule="evenodd" d="M21.8856 36.6188C23.9029 35.7889 25.7051 34.5178 27.1576 32.9004C30.5756 29.0177 31.197 22.8136 30.5756 19.239C29.488 13.0759 21.8856 5.58783 6.84658 8.38175C6.84658 8.38175 27.313 8.38175 26.2254 24.9809C13.8172 26.8504 -0.445083 20.79 0.0106457 0C2.6518 3.88272 9.77775 2.94799 12.4396 2.63984C25.7697 1.85919 34.6046 8.38175 35.5368 18.7768C35.8475 22.3513 35.3814 31.9657 27.313 37.3994C26.3687 38.1182 25.3214 38.6929 24.2057 39.1046C23.5496 38.1723 22.7652 37.3356 21.8753 36.6188" fill="url(#paint0_linear_341_1057)"/>
<path fill-rule="evenodd" clip-rule="evenodd" d="M9.47752 38.3341C8.24652 38.1291 7.0484 37.763 5.91455 37.2453V22.6594C8.24498 24.2105 9.94361 25.289 12.129 25.7409V38.6423C11.2417 38.6106 10.3584 38.5076 9.48788 38.3341" fill="white"/>
<path fill-rule="evenodd" clip-rule="evenodd" d="M147.087 53.9778C147.951 53.616 148.722 53.0649 149.34 52.3658C149.959 51.6667 150.411 50.8377 150.66 49.941C151.773 46.6361 152.196 43.1413 151.903 39.6692C151.748 36.5877 151.437 33.5062 149.573 30.9691C148.948 30.163 148.11 29.5443 147.152 29.1817C146.194 28.8191 145.153 28.7267 144.145 28.9147C143.059 29.1047 142.038 29.5588 141.172 30.2364C140.306 30.914 139.623 31.7939 139.184 32.7974C137.631 35.879 137.786 48.4721 139.34 51.112C140.065 52.4363 141.249 53.4559 142.673 53.9826C144.096 54.5093 145.664 54.5076 147.087 53.9778ZM131.893 9.29565H138.107V31.4826C139.306 29.4395 141.163 27.8551 143.379 26.9836C145.49 26.2497 147.771 26.1376 149.945 26.6607C152.119 27.1838 154.094 28.3198 155.632 29.9316C158.447 32.8535 160.003 36.7478 159.972 40.7888C160.22 44.8754 158.828 48.8933 156.098 51.9645C154.761 53.4111 153.13 54.56 151.313 55.3356C149.495 56.1111 147.532 56.4955 145.554 56.4635H143.845C141.315 56.1538 138.965 55.0065 137.175 53.2074C136.895 54.3122 136.549 55.3995 136.139 56.4635H131.944L131.893 9.29565Z" fill="white"/>
<path fill-rule="evenodd" clip-rule="evenodd" d="M70.4417 9.30615H76.6561V34.1433C78.2436 31.4336 80.624 29.2663 83.4817 27.9288C86.8893 26.5319 90.1519 26.5319 93.2488 28.5451C94.4352 29.3929 95.3943 30.5157 96.0424 31.8155C96.6906 33.1154 97.0081 34.5529 96.9672 36.0024V56.4843H90.5869C90.5869 56.4843 90.7423 42.977 90.5869 37.8616C90.5869 31.0309 85.6257 30.6714 83.9271 30.8768C82.6262 31.0844 81.3901 31.5837 80.3132 32.3366C79.2363 33.0896 78.3468 34.0764 77.7126 35.2218C76.9704 36.7178 76.6145 38.3731 76.6768 40.0392V56.474H70.4417V9.30615Z" fill="white"/>
<path fill-rule="evenodd" clip-rule="evenodd" d="M26.1115 48.5236C22.3932 39.7309 20.187 34.6567 14.449 34.6567V33.9788C21.5438 33.9788 30.8345 36.3515 34.7186 47.8456C38.613 59.1446 43.2946 73.7202 56.6453 73.7202V74.2235C35.1847 74.2235 29.8195 57.3162 26.1115 48.5441" fill="white"/>
<path fill-rule="evenodd" clip-rule="evenodd" d="M115.165 53.8243C116.146 53.7401 117.08 53.372 117.852 52.7657C118.623 52.1594 119.198 51.3417 119.505 50.4141C120.903 47.1579 120.282 43.5834 120.437 40.1423C117.185 40.2964 113.612 40.9127 110.981 42.9362C108.184 44.7954 107.874 48.8322 109.583 51.6261C110.618 53.4853 113.156 54.1119 115.165 53.7935V53.8243ZM103.586 54.4509C100.178 51.9651 99.8673 46.3773 102.809 43.2752C105.139 40.9435 108.547 39.865 111.965 39.0843C114.769 38.5176 117.628 38.2593 120.489 38.3139C120.541 36.3948 120.437 34.4747 120.178 32.572C119.143 25.5872 106.527 29.4905 103.43 32.572V30.8566C108.702 26.8301 114.13 25.5872 119.401 26.5117C120.536 26.7322 121.614 27.1757 122.573 27.8161C123.532 28.4564 124.352 29.2807 124.984 30.2403C126.538 32.572 126.693 35.3762 126.693 38.1599C126.693 38.1599 126.693 56.0019 126.693 56.4539H122.55C122.091 55.4108 121.744 54.3229 121.514 53.208C119.289 55.3968 116.28 56.6229 113.146 56.6182C109.272 56.6182 105.864 56.31 103.586 54.4509Z" fill="white"/>
<path fill-rule="evenodd" clip-rule="evenodd" d="M56.1687 39.7309C57.4914 38.6032 58.3598 37.0405 58.6147 35.3293C58.8696 33.6181 58.494 31.8732 57.5566 30.4144C55.5473 27.3329 46.3913 27.0042 46.3913 38.3339L46.2359 40.6553V42.5145C49.6539 42.3604 53.4861 41.7441 56.1687 39.7309ZM43.9158 53.5361C41.1098 51.517 39.1723 48.5249 38.4885 45.1544C37.4528 40.5013 38.3332 35.2216 41.5958 31.6573C48.4213 24.0562 59.1206 26.0694 62.8389 29.0174C65.9462 31.6573 66.9819 36.4645 64.0818 39.4124C61.7514 41.8982 58.3334 42.987 54.9051 43.6547C52.0937 44.216 49.2377 44.5288 46.3706 44.5894C46.5823 46.9026 47.3804 49.1251 48.6906 51.0503C50.3996 53.228 53.1858 53.9983 55.9409 53.9983C57.6886 53.9833 59.4094 53.5697 60.9701 52.7896C62.5309 52.0094 63.8897 50.8836 64.9415 49.4993H66.7126C65.6657 51.2924 64.2326 52.8344 62.5157 54.0151C60.7987 55.1958 58.8402 55.9863 56.7798 56.33C52.2847 57.008 47.4788 56.1759 43.9158 53.5361Z" fill="white"/>
<path fill-rule="evenodd" clip-rule="evenodd" d="M0.0107422 34.4102C1.99493 36.5156 4.4036 38.1836 7.08024 39.3055C9.75688 40.4275 12.6416 40.9784 15.547 40.9225C16.9499 40.8964 18.3503 40.7936 19.7417 40.6143C19.3005 39.6115 18.7257 38.6718 18.0328 37.8204C15.2572 38.5961 12.3436 38.7574 9.49819 38.2929C5.9145 37.7074 2.66226 35.6941 0.0107422 33.835V34.4102Z" fill="url(#paint1_linear_341_1057)"/>
<path fill-rule="evenodd" clip-rule="evenodd" d="M106.693 73.2064C107.05 73.176 107.391 73.042 107.673 72.821C107.955 72.6001 108.165 72.3019 108.277 71.9635C108.614 70.7507 108.73 69.488 108.619 68.2349C107.392 68.2272 106.19 68.585 105.17 69.2621C104.698 69.625 104.38 70.1497 104.279 70.7332C104.177 71.3167 104.299 71.9167 104.621 72.4155C104.849 72.7356 105.167 72.9815 105.536 73.1223C105.905 73.2631 106.307 73.2923 106.693 73.2064ZM102.405 73.4427C102.105 73.1972 101.859 72.8937 101.682 72.5507C101.504 72.2078 101.399 71.8326 101.373 71.448C101.347 71.0635 101.4 70.6777 101.529 70.3142C101.659 69.9507 101.861 69.6172 102.125 69.334C103.072 68.5265 104.227 67.9965 105.46 67.8035C106.483 67.5992 107.524 67.5062 108.567 67.5261C108.584 66.8395 108.546 66.1525 108.453 65.4718C108.06 62.9347 103.482 64.3419 102.353 65.4718V64.8555C103.152 64.1927 104.085 63.7083 105.089 63.4353C106.094 63.1624 107.146 63.1072 108.174 63.2736C108.594 63.3463 108.996 63.5043 109.352 63.7376C109.708 63.9708 110.012 64.2745 110.245 64.6295C110.731 65.5076 110.947 66.5073 110.867 67.5056V74.2028H109.375C109.174 73.8174 109.027 73.406 108.94 72.9805C108.131 73.7782 107.036 74.2252 105.895 74.2233C104.676 74.3586 103.447 74.0837 102.405 73.4427Z" fill="#B3CA1E"/>
<path d="M144.218 63.3767L141.494 71.2141L138.728 63.3767H136.491L140.468 74.1518L139.992 75.4974C138.666 78.6611 139.091 79.4006 136.646 79.8115V79.9451C137.558 80.0958 138.494 79.9336 139.3 79.4854C140.106 79.0372 140.734 78.3297 141.079 77.4798C141.079 77.3874 141.152 77.2949 141.193 77.1922C142.809 73.4122 145.005 67.1978 146.372 63.3767H144.218Z" fill="#B3CA1E"/>
<path fill-rule="evenodd" clip-rule="evenodd" d="M133.073 74.2135L133.104 58.8162L135.238 58.8059L135.269 74.2135H133.073Z" fill="#B3CA1E"/>
<path fill-rule="evenodd" clip-rule="evenodd" d="M129.033 74.2131L128.992 63.397L131.229 63.3867V74.2029L129.033 74.2131Z" fill="#B3CA1E"/>
<path d="M130.121 61.9077C130.859 61.9077 131.457 61.3099 131.457 60.5724C131.457 59.8349 130.859 59.2371 130.121 59.2371C129.383 59.2371 128.785 59.8349 128.785 60.5724C128.785 61.3099 129.383 61.9077 130.121 61.9077Z" fill="#B3CA1E"/>
<path fill-rule="evenodd" clip-rule="evenodd" d="M102.342 58.6723C102.342 58.6723 96.9979 57.2651 96.9979 62.9659V63.3973H95.3511C95.377 63.6775 95.377 63.9594 95.3511 64.2396H97.0083V74.2032H98.9348V64.2293H101.338C101.322 63.9488 101.322 63.6676 101.338 63.387H98.914V62.1441C98.914 60.9321 98.6862 59.3708 100.582 59.3708H100.789C100.689 59.5612 100.636 59.7724 100.633 59.9871C100.633 60.3385 100.774 60.6755 101.025 60.924C101.275 61.1725 101.615 61.3121 101.97 61.3121C102.324 61.3121 102.664 61.1725 102.914 60.924C103.165 60.6755 103.306 60.3385 103.306 59.9871C103.313 59.6933 103.223 59.4053 103.049 59.1676C102.875 58.9299 102.626 58.7558 102.342 58.6723Z" fill="#B3CA1E"/>
<path fill-rule="evenodd" clip-rule="evenodd" d="M125.885 64.024C125.362 63.6865 124.761 63.4884 124.139 63.4488C123.516 63.4092 122.894 63.5295 122.332 63.7981C121.689 64.1026 121.106 64.5202 120.613 65.0307C120.409 64.6125 120.094 64.2574 119.702 64.0035C119.181 63.6612 118.579 63.4602 117.956 63.4205C117.332 63.3809 116.709 63.504 116.149 63.7775C115.553 64.0563 115.01 64.4351 114.544 64.8971V63.3975H112.306V74.2033H114.554V65.801C115.029 65.3125 115.65 64.9883 116.325 64.8766C116.947 64.8766 118.759 64.9382 118.759 67.424C118.759 69.2832 118.759 74.2033 118.759 74.2033H121.069V66.7461C121.066 66.3697 121.007 65.9958 120.893 65.6367C121.345 65.2318 121.906 64.9675 122.509 64.8766C123.13 64.815 124.932 64.8766 124.932 67.4137C124.994 69.2832 124.932 74.1931 124.932 74.1931H127.252V66.7358C127.265 66.2074 127.147 65.684 126.909 65.2113C126.67 64.7386 126.319 64.3309 125.885 64.024Z" fill="#B3CA1E"/>
<defs>
<linearGradient id="paint0_linear_341_1057" x1="2.00177" y1="24.2738" x2="37.7102" y2="24.2738" gradientUnits="userSpaceOnUse">
<stop stop-color="#DDCF49"/>
<stop offset="1" stop-color="#A1C74F"/>
</linearGradient>
<linearGradient id="paint1_linear_341_1057" x1="0.646691" y1="38.7192" x2="20.2441" y2="38.7192" gradientUnits="userSpaceOnUse">
<stop stop-color="#DDCF49"/>
<stop offset="0.87" stop-color="#9EC650"/>
<stop offset="1" stop-color="#9EC650"/>
</linearGradient>
</defs>
</svg>
