<svg width="160" height="57" viewBox="0 0 160 57" fill="none" xmlns="http://www.w3.org/2000/svg">
<path fill-rule="evenodd" clip-rule="evenodd" d="M3.59338 28.9238C4.76003 29.6127 6.03753 30.0948 7.36919 30.3487V38.5964H3.59338V28.9238" fill="#42403E"/>
<path fill-rule="evenodd" clip-rule="evenodd" d="M13.2973 26.457C14.523 25.9499 15.6179 25.1731 16.5005 24.1848C18.5771 21.8122 18.9547 18.0209 18.5771 15.8366C17.9164 12.0705 13.2973 7.49468 4.15986 9.20198C4.15986 9.20198 16.5948 9.20198 15.9341 19.3454C8.39505 20.4877 -0.270424 16.7844 0.00646816 4.08008C1.61119 6.45272 5.94078 5.88153 7.55808 5.69323C15.6572 5.21619 21.0251 9.20198 21.5915 15.5541C21.7803 17.7385 21.4971 23.6136 16.5948 26.9341C16.0211 27.3733 15.3848 27.7245 14.7069 27.976C14.3083 27.4063 13.8317 26.895 13.291 26.457" fill="url(#paint0_linear_105_1053)"/>
<path fill-rule="evenodd" clip-rule="evenodd" d="M5.75818 27.5052C5.01025 27.3799 4.28229 27.1562 3.59338 26.8399V17.9268C5.00931 18.8746 6.04137 19.5336 7.36919 19.8098V27.6935C6.83006 27.6742 6.29338 27.6112 5.76447 27.5052" fill="#42403E"/>
<path fill-rule="evenodd" clip-rule="evenodd" d="M89.3672 37.0645C89.8923 36.8434 90.3604 36.5067 90.7364 36.0795C91.1124 35.6522 91.3865 35.1457 91.5383 34.5977C92.2143 32.5782 92.4713 30.4426 92.2935 28.3209C92.1991 26.4378 92.0103 24.5548 90.8775 23.0044C90.4977 22.5118 89.9886 22.1338 89.4065 21.9122C88.8245 21.6906 88.1923 21.6341 87.58 21.749C86.9201 21.8651 86.2993 22.1426 85.7732 22.5567C85.2472 22.9707 84.8323 23.5084 84.5657 24.1217C83.6217 26.0047 83.7161 33.7001 84.6601 35.3133C85.1008 36.1226 85.82 36.7456 86.6851 37.0674C87.5502 37.3893 88.5028 37.3882 89.3672 37.0645V37.0645ZM80.1354 9.76025H83.9112V23.3182C84.6399 22.0697 85.7679 21.1015 87.1143 20.569C88.3972 20.1205 89.7827 20.052 91.1037 20.3716C92.4247 20.6913 93.6248 21.3855 94.559 22.3704C96.2693 24.1559 97.215 26.5357 97.1957 29.005C97.3468 31.5022 96.5006 33.9575 94.8421 35.8343C94.0299 36.7182 93.0389 37.4203 91.9346 37.8942C90.8304 38.3681 89.6379 38.6031 88.4359 38.5835H87.3975C85.8606 38.3942 84.4326 37.6931 83.3448 36.5937C83.1749 37.2689 82.9647 37.9333 82.7155 38.5835H80.1668L80.1354 9.76025Z" fill="#42403E"/>
<path fill-rule="evenodd" clip-rule="evenodd" d="M42.799 9.7666H46.5748V24.944C47.5393 23.2882 48.9855 21.9638 50.7218 21.1465C52.7923 20.2929 54.7745 20.2929 56.6562 21.5231C57.377 22.0411 57.9597 22.7273 58.3535 23.5216C58.7473 24.3159 58.9402 25.1943 58.9154 26.0801V38.5961H55.0389C55.0389 38.5961 55.1333 30.3421 55.0389 27.2162C55.0389 23.0421 52.0245 22.8224 50.9924 22.948C50.202 23.0748 49.4511 23.3799 48.7967 23.84C48.1424 24.3001 47.602 24.9031 47.2166 25.6031C46.7657 26.5172 46.5495 27.5288 46.5873 28.5469V38.5899H42.799V9.7666Z" fill="#42403E"/>
<path fill-rule="evenodd" clip-rule="evenodd" d="M15.8649 33.7318C13.6057 28.3588 12.2653 25.258 8.77893 25.258V24.8438C13.0896 24.8438 18.7345 26.2937 21.0944 33.3175C23.4605 40.222 26.305 49.1288 34.4167 49.1288V49.4364C21.3775 49.4364 18.1178 39.1047 15.8649 33.7443" fill="#42403E"/>
<path fill-rule="evenodd" clip-rule="evenodd" d="M69.9721 36.9709C70.5679 36.9194 71.1355 36.6945 71.6043 36.324C72.0731 35.9535 72.4224 35.4538 72.6088 34.8869C73.4584 32.8972 73.0808 30.7128 73.1752 28.6101C71.1992 28.7043 69.0281 29.0809 67.4297 30.3174C65.7306 31.4535 65.5418 33.9203 66.5801 35.6276C67.2094 36.7637 68.7512 37.1466 69.9721 36.952V36.9709ZM62.9365 37.3537C60.8661 35.8347 60.6773 32.4201 62.4645 30.5245C63.8804 29.0997 65.9508 28.4406 68.0275 27.9636C69.7313 27.6173 71.4682 27.4594 73.2067 27.4928C73.238 26.3201 73.1748 25.1467 73.0179 23.9841C72.3886 19.7158 64.7237 22.101 62.8421 23.9841V22.9358C66.0452 20.4753 69.3428 19.7158 72.5459 20.2807C73.2352 20.4155 73.8904 20.6865 74.4729 21.0778C75.0555 21.4691 75.5536 21.9728 75.9378 22.5592C76.8818 23.9841 76.9762 25.6977 76.9762 27.3987C76.9762 27.3987 76.9762 38.3015 76.9762 38.5777H74.459C74.1802 37.9404 73.9692 37.2756 73.8297 36.5942C72.4775 37.9318 70.6494 38.681 68.7449 38.6782C66.3913 38.6782 64.3209 38.4899 62.9365 37.3537Z" fill="#42403E"/>
<path fill-rule="evenodd" clip-rule="evenodd" d="M34.1272 28.3589C34.9308 27.6698 35.4585 26.7149 35.6133 25.6692C35.7682 24.6236 35.54 23.5572 34.9705 22.6658C33.7496 20.7828 28.1866 20.5819 28.1866 27.5053L28.0922 28.9238V30.0599C30.1689 29.9658 32.4973 29.5892 34.1272 28.3589ZM26.6826 36.795C24.9777 35.5612 23.8005 33.7328 23.385 31.6731C22.7557 28.8297 23.2906 25.6034 25.2729 23.4253C29.42 18.7804 35.9207 20.0107 38.1799 21.8122C40.0678 23.4253 40.6971 26.3629 38.9351 28.1643C37.5191 29.6833 35.4425 30.3487 33.3595 30.7567C31.6513 31.0997 29.916 31.2908 28.174 31.3279C28.3027 32.7414 28.7876 34.0995 29.5837 35.276C30.622 36.6067 32.3148 37.0774 33.9888 37.0774C35.0507 37.0683 36.0962 36.8155 37.0445 36.3388C37.9927 35.8621 38.8183 35.1741 39.4574 34.3282H40.5335C39.8974 35.4239 39.0267 36.3662 37.9835 37.0877C36.9403 37.8092 35.7504 38.2922 34.4985 38.5023C31.7673 38.9166 28.8474 38.4081 26.6826 36.795Z" fill="#42403E"/>
<path fill-rule="evenodd" clip-rule="evenodd" d="M0.00646973 25.1074C1.21203 26.394 2.67549 27.4132 4.30176 28.0988C5.92804 28.7844 7.68074 29.1211 9.44599 29.0869C10.2984 29.071 11.1492 29.0081 11.9947 28.8986C11.7266 28.2858 11.3774 27.7115 10.9563 27.1913C9.26992 27.6653 7.49968 27.7639 5.77087 27.48C3.59349 27.1222 1.61748 25.892 0.00646973 24.7559V25.1074Z" fill="url(#paint1_linear_105_1053)"/>
<path fill-rule="evenodd" clip-rule="evenodd" d="M64.8244 48.8146C65.0419 48.796 65.249 48.7141 65.4202 48.5791C65.5914 48.4441 65.719 48.2619 65.7873 48.0551C65.9919 47.314 66.0622 46.5424 65.9949 45.7766C65.2492 45.7719 64.5191 45.9906 63.8994 46.4043C63.6127 46.6261 63.4196 46.9467 63.3579 47.3033C63.2962 47.6598 63.3704 48.0265 63.5658 48.3313C63.7043 48.5269 63.8977 48.6772 64.1217 48.7632C64.3457 48.8492 64.5902 48.8671 64.8244 48.8146ZM62.2191 48.959C62.0371 48.809 61.8876 48.6235 61.7799 48.4139C61.6721 48.2044 61.6083 47.9751 61.5924 47.7401C61.5765 47.5051 61.6088 47.2693 61.6874 47.0472C61.7659 46.8251 61.889 46.6213 62.0492 46.4483C62.6245 45.9548 63.3261 45.631 64.0756 45.513C64.6968 45.3882 65.3299 45.3313 65.9635 45.3435C65.9736 44.9239 65.9504 44.5041 65.8942 44.0882C65.6551 42.5378 62.8736 43.3977 62.1877 44.0882V43.7115C62.673 43.3065 63.2401 43.0105 63.8504 42.8437C64.4606 42.6769 65.0998 42.6432 65.7243 42.7449C65.9799 42.7893 66.2236 42.8858 66.4402 43.0284C66.6567 43.171 66.8415 43.3565 66.9829 43.5735C67.2779 44.11 67.4091 44.7209 67.3605 45.331V49.4235H66.4543C66.3319 49.1879 66.2429 48.9366 66.19 48.6765C65.6984 49.164 65.0331 49.4372 64.3399 49.436C63.5993 49.5187 62.8524 49.3507 62.2191 48.959V48.959Z" fill="#B3CA1E"/>
<path d="M87.624 42.8081L85.969 47.5973L84.2887 42.8081H82.9294L85.346 49.3925L85.0565 50.2148C84.251 52.148 84.509 52.6 83.0238 52.851V52.9327C83.5776 53.0248 84.1464 52.9257 84.6361 52.6518C85.1258 52.3779 85.5072 51.9455 85.7172 51.4262C85.7172 51.3697 85.7613 51.3132 85.7865 51.2505C86.7682 48.9406 88.1023 45.1431 88.933 42.8081H87.624Z" fill="#B3CA1E"/>
<path fill-rule="evenodd" clip-rule="evenodd" d="M80.8528 49.4299L80.8717 40.0209L82.168 40.0146L82.1869 49.4299H80.8528Z" fill="#B3CA1E"/>
<path fill-rule="evenodd" clip-rule="evenodd" d="M78.3985 49.4302L78.3733 42.8207L79.7326 42.8145V49.424L78.3985 49.4302Z" fill="#B3CA1E"/>
<path d="M79.0594 41.9103C79.5077 41.9103 79.8712 41.545 79.8712 41.0943C79.8712 40.6437 79.5077 40.2783 79.0594 40.2783C78.611 40.2783 78.2476 40.6437 78.2476 41.0943C78.2476 41.545 78.611 41.9103 79.0594 41.9103Z" fill="#B3CA1E"/>
<path fill-rule="evenodd" clip-rule="evenodd" d="M62.1815 39.9333C62.1815 39.9333 58.9343 39.0734 58.9343 42.557V42.8206H57.9337C57.9495 42.9919 57.9495 43.1641 57.9337 43.3353H58.9406V49.4239H60.1111V43.3291H61.5711C61.5615 43.1576 61.5615 42.9858 61.5711 42.8144H60.0985V42.0549C60.0985 41.3142 59.9601 40.3601 61.1117 40.3601H61.2375C61.1769 40.4765 61.1445 40.6055 61.1432 40.7367C61.1432 40.9515 61.2287 41.1574 61.3809 41.3093C61.5332 41.4611 61.7396 41.5464 61.955 41.5464C62.1703 41.5464 62.3767 41.4611 62.529 41.3093C62.6812 41.1574 62.7668 40.9515 62.7668 40.7367C62.7714 40.5572 62.7166 40.3812 62.6108 40.236C62.505 40.0907 62.3541 39.9843 62.1815 39.9333V39.9333Z" fill="#B3CA1E"/>
<path fill-rule="evenodd" clip-rule="evenodd" d="M76.4854 43.2037C76.1679 42.9974 75.8024 42.8764 75.4243 42.8522C75.0462 42.828 74.6682 42.9015 74.3269 43.0656C73.9359 43.2517 73.582 43.5069 73.2822 43.8188C73.1582 43.5633 72.9668 43.3463 72.7284 43.1911C72.4121 42.982 72.0464 42.8591 71.6677 42.8349C71.2889 42.8107 70.9104 42.8859 70.5699 43.053C70.2078 43.2234 69.8778 43.4549 69.5945 43.7372V42.8208H68.2352V49.424H69.6008V44.2896C69.8895 43.991 70.2667 43.793 70.6769 43.7247C71.0545 43.7247 72.1558 43.7623 72.1558 45.2813C72.1558 46.4174 72.1558 49.424 72.1558 49.424H73.5591V44.8671C73.5574 44.637 73.5213 44.4086 73.4521 44.1892C73.7267 43.9417 74.068 43.7802 74.4338 43.7247C74.8114 43.687 75.9064 43.7247 75.9064 45.275C75.9442 46.4174 75.9064 49.4178 75.9064 49.4178H77.316V44.8608C77.3238 44.5379 77.2521 44.2181 77.1073 43.9292C76.9625 43.6403 76.749 43.3912 76.4854 43.2037V43.2037Z" fill="#B3CA1E"/>
<path d="M132.789 57C147.817 57 160 44.2392 160 28.5031C160 12.7671 147.798 0 132.789 0C117.78 0 105.584 12.7608 105.584 28.5031C105.584 44.2455 117.742 57 132.789 57ZM131.53 5.76214C144.192 5.76214 154.456 16.5144 154.456 29.7836C154.456 43.0529 144.211 53.7988 131.53 53.7988C118.85 53.7988 108.599 43.0466 108.599 29.7836C108.599 16.5206 118.888 5.76214 131.53 5.76214Z" fill="url(#paint2_linear_105_1053)"/>
<path d="M127.364 41.0757V49.3737H125.477V42.6135H123.589V44.5656C123.589 46.6935 123.318 48.3317 122.059 49.0849C121.55 49.3553 120.981 49.4934 120.404 49.4866L120.203 47.9928C120.56 47.9533 120.895 47.7965 121.153 47.5471C121.657 47.0199 121.783 45.9653 121.783 44.71V41.0757H127.364Z" fill="#B3CA1E"/>
<path d="M133.953 45.8649H130.901V47.8358H134.318V49.3737H129.013V41.0757H134.142V42.6135H130.901V44.3396H133.959L133.953 45.8649Z" fill="#B3CA1E"/>
<path d="M137.194 42.6826H134.96V41.0757H141.348V42.6826H139.082V49.3737H137.194V42.6826Z" fill="#B3CA1E"/>
<path d="M116.094 10.3882V34.7109C116.094 35.5269 116.094 37.115 118.095 37.3974V38.8599H107.938V37.3974C109.977 37.1526 109.977 35.4453 109.977 34.7109V16.1252H109.694C108.344 17.5122 106.869 18.7728 105.289 19.8913V17.6254C108.016 15.6856 110.33 13.2258 112.098 10.3882H116.094Z" fill="#42403E"/>
<path d="M121.562 24.5863C121.562 11.7689 127.761 9.94238 131.549 9.94238C135.338 9.94238 141.543 11.7689 141.543 24.5863C141.543 37.5605 135.25 39.3055 131.549 39.3055C127.849 39.3055 121.562 37.5605 121.562 24.5863ZM127.855 18.686V30.4802C127.855 33.286 128.22 37.1525 131.562 37.1525C134.784 37.1525 135.275 33.7379 135.275 30.4802V18.686C135.275 15.3091 134.784 12.0953 131.562 12.0953C128.34 12.0953 127.843 15.3907 127.843 18.686H127.855Z" fill="#42403E"/>
<defs>
<linearGradient id="paint0_linear_105_1053" x1="1.21624" y1="19.5118" x2="22.912" y2="19.5118" gradientUnits="userSpaceOnUse">
<stop stop-color="#DDCF49"/>
<stop offset="1" stop-color="#A1C74F"/>
</linearGradient>
<linearGradient id="paint1_linear_105_1053" x1="0.392861" y1="27.996" x2="12.2999" y2="27.996" gradientUnits="userSpaceOnUse">
<stop stop-color="#DDCF49"/>
<stop offset="0.87" stop-color="#9EC650"/>
<stop offset="1" stop-color="#9EC650"/>
</linearGradient>
<linearGradient id="paint2_linear_105_1053" x1="159.981" y1="28.4969" x2="105.565" y2="28.4969" gradientUnits="userSpaceOnUse">
<stop stop-color="#B3CA1E"/>
<stop offset="0.06" stop-color="#B5CB24"/>
<stop offset="0.14" stop-color="#BACF33"/>
<stop offset="0.22" stop-color="#C3D54E"/>
<stop offset="0.32" stop-color="#CFDE72"/>
<stop offset="0.41" stop-color="#DFE9A1"/>
<stop offset="0.52" stop-color="#F2F6DA"/>
<stop offset="0.58" stop-color="#F6F2EE"/>
</linearGradient>
</defs>
</svg>
