<svg width="72" height="44" viewBox="0 0 72 44" fill="none" xmlns="http://www.w3.org/2000/svg">
<path d="M72 21.6001C72.0034 33.5266 62.3585 43.1968 50.4577 43.2C38.5567 43.2029 28.9077 33.5376 28.9045 21.6111C28.9045 21.6072 28.9045 21.604 28.9045 21.6001C28.9014 9.67385 38.5463 0.0031691 50.4465 7.78675e-07C62.3475 -0.00316754 71.9968 9.66264 72 21.5892C72 21.5928 72 21.5962 72 21.6001Z" fill="#FF9900"/>
<path d="M21.409 0.00572355C9.57876 0.081032 0 9.72661 0 21.6002C0 33.5202 9.65342 43.1945 21.5478 43.1945C27.1303 43.1945 32.2188 41.0625 36.0478 37.5681C36.0475 37.5681 36.0471 37.5676 36.0461 37.5671H36.0507C36.8347 36.8511 37.566 36.0785 38.2382 35.2547H33.8236C33.2341 34.5411 32.6983 33.7975 32.2171 33.0303H39.8308C40.2939 32.2877 40.7131 31.5166 41.0852 30.7179H30.96C30.6149 29.9765 30.3153 29.2183 30.0595 28.4492H41.9867C42.7056 26.2967 43.0957 23.9938 43.0957 21.6C43.0957 20.0129 42.924 18.4656 42.5991 16.9757H29.4269C29.5901 16.209 29.7961 15.4515 30.0417 14.7072H41.9734C41.7066 13.9151 41.3968 13.1433 41.0444 12.3951H30.9588C31.3226 11.6161 31.7348 10.8584 32.1952 10.1268H39.8034C39.2971 9.31838 38.7367 8.54604 38.131 7.81441H33.889C34.5449 7.04085 35.2669 6.31238 36.0507 5.63314C32.2214 2.13824 27.1315 0.00572355 21.5478 0.00572355C21.5014 0.00572355 21.4554 0.00547984 21.409 0.00572355Z" fill="#CC0000"/>
<path d="M69.8382 32.8892C69.9554 32.8892 70.0695 32.9196 70.1809 32.9796C70.2927 33.0395 70.3788 33.1261 70.4411 33.2384C70.5033 33.3495 70.5345 33.4668 70.5345 33.5881C70.5345 33.708 70.5036 33.8241 70.4423 33.9352C70.3813 34.0461 70.2952 34.1326 70.1843 34.1943C70.0746 34.2549 69.9586 34.2857 69.838 34.2857C69.7174 34.2857 69.6016 34.2549 69.4912 34.1943C69.3805 34.1324 69.2949 34.0463 69.2327 33.9352C69.1714 33.8241 69.141 33.708 69.141 33.5881C69.141 33.4668 69.1719 33.3495 69.2344 33.2384C69.2971 33.1261 69.3837 33.0403 69.4948 32.9796C69.6072 32.9196 69.7212 32.8892 69.8382 32.8892ZM69.8382 33.0049C69.7407 33.0049 69.6454 33.0303 69.5522 33.0807C69.4598 33.1312 69.3876 33.2026 69.3355 33.2971C69.2828 33.3902 69.2565 33.4868 69.2565 33.5881C69.2565 33.6885 69.2823 33.7856 69.3331 33.8777C69.3852 33.9696 69.4571 34.0417 69.5491 34.0934C69.6417 34.1448 69.7378 34.1701 69.838 34.1701C69.9387 34.1701 70.035 34.1448 70.1271 34.0934C70.219 34.0417 70.2908 33.9696 70.3421 33.8777C70.3929 33.7856 70.4182 33.6888 70.4182 33.5881C70.4182 33.4868 70.3924 33.39 70.3402 33.2971C70.2884 33.2026 70.2159 33.1312 70.1227 33.0807C70.0306 33.03 69.9357 33.0049 69.8382 33.0049ZM69.5328 33.9737V33.2226H69.791C69.8786 33.2226 69.9423 33.2294 69.9817 33.244C70.0211 33.2579 70.0525 33.2815 70.0761 33.3164C70.0992 33.3508 70.1111 33.3873 70.1111 33.4263C70.1111 33.4814 70.0916 33.5292 70.0522 33.5696C70.0138 33.6101 69.9615 33.6332 69.8968 33.6381C69.9233 33.6491 69.9445 33.663 69.961 33.6781C69.9914 33.7073 70.0279 33.7568 70.0717 33.8267L70.1629 33.9737H70.0155L69.9494 33.8555C69.8971 33.7624 69.855 33.7044 69.8227 33.6805C69.8005 33.6637 69.7682 33.6549 69.7261 33.6549H69.6549V33.9744H69.5333L69.5328 33.9737ZM69.6539 33.5509H69.8008C69.8708 33.5509 69.9182 33.5401 69.9438 33.5194C69.9695 33.498 69.9824 33.4707 69.9824 33.4361C69.9824 33.4136 69.9766 33.3937 69.9642 33.3766C69.9515 33.3588 69.9345 33.3461 69.9124 33.3371C69.8907 33.3286 69.8504 33.3237 69.7915 33.3237H69.6544V33.5509" fill="#FCB340"/>
<path d="M28.6984 27.7956L28.9854 25.841C28.8285 25.841 28.598 25.909 28.3942 25.909C27.5955 25.909 27.4958 25.4813 27.5586 25.1688L28.3455 21.2377H29.5595L29.8098 19.0191H28.6656L28.8986 17.6748H26.5051C26.4545 17.7255 25.151 25.2354 25.151 26.1503C25.151 27.5041 25.9093 28.1066 26.9788 28.0971C27.8159 28.09 28.4684 27.8578 28.6984 27.7956Z" fill="#000066"/>
<path d="M29.4248 24.0694C29.4248 27.3186 31.5646 28.0905 33.3881 28.0905C35.0712 28.0905 35.9537 27.6995 35.9537 27.6995L36.3579 25.4817C36.3579 25.4817 34.9357 26.0613 33.7798 26.0613C31.3161 26.0613 31.748 24.2202 31.748 24.2202L36.4812 24.2346C36.4812 24.2346 36.7825 22.7453 36.7825 22.1382C36.7825 20.623 35.9588 18.7629 33.4399 18.7629C31.133 18.7634 29.4248 21.2545 29.4248 24.0694ZM33.4486 20.8219C34.7434 20.8219 34.5046 22.2803 34.5046 22.3985H31.9574C31.9574 22.2474 32.1979 20.8219 33.4486 20.8219Z" fill="#000066"/>
<path d="M47.9762 27.7946L48.387 25.2882C48.387 25.2882 47.2605 25.8539 46.4884 25.8539C44.8607 25.8539 44.2078 24.6085 44.2078 23.2702C44.2078 20.556 45.6081 19.0625 47.1669 19.0625C48.3362 19.0625 49.2741 19.7203 49.2741 19.7203L49.6487 17.2848C49.6487 17.2848 48.5412 16.4832 47.3491 16.4786C43.7632 16.4644 41.7114 18.9664 41.7114 23.2917C41.7114 26.1585 43.2309 28.1095 45.9687 28.1095C46.7428 28.1095 47.9762 27.7946 47.9762 27.7946Z" fill="#000066"/>
<path d="M16.0795 18.7988C14.5063 18.7988 13.3006 19.3055 13.3006 19.3055L12.9674 21.2862C12.9674 21.2862 13.9628 20.8809 15.4677 20.8809C16.322 20.8809 16.947 20.9772 16.947 21.673C16.947 22.0956 16.8706 22.2516 16.8706 22.2516C16.8706 22.2516 16.1965 22.1953 15.8842 22.1953C13.6445 22.1953 11.8159 23.0439 11.8159 25.6024C11.8159 27.6187 13.1834 28.081 14.0309 28.081C15.6498 28.081 16.2906 27.0567 16.3276 27.0538L16.3089 27.9038C16.3089 27.9038 18.3288 27.9038 18.329 27.9038L19.2303 21.5721C19.2303 18.8851 16.8918 18.7988 16.0795 18.7988ZM16.4292 23.9403C16.4732 24.3268 16.3295 26.1547 14.9477 26.1547C14.2352 26.1547 14.0501 25.6088 14.0501 25.2866C14.0501 24.6568 14.3913 23.9015 16.0722 23.9015C16.4638 23.9015 16.3633 23.9298 16.4292 23.9403Z" fill="#000066"/>
<path d="M21.3774 28.0343C21.8942 28.0343 24.8482 28.1661 24.8482 25.1111C24.8482 22.2545 22.1138 22.8192 22.1138 21.6713C22.1138 21.1005 22.5595 20.9207 23.3745 20.9207C23.6977 20.9207 24.9423 21.0237 24.9423 21.0237L25.2315 18.9936C25.2315 18.9938 24.426 18.813 23.1147 18.813C21.4175 18.813 19.6948 19.492 19.6948 21.8151C19.6948 24.4477 22.5673 24.1833 22.5673 25.2922C22.5673 26.0324 21.7648 26.0933 21.1461 26.0933C20.0758 26.0933 19.1123 25.725 19.1089 25.7428L18.8027 27.7523C18.8584 27.7693 19.453 28.0343 21.3774 28.0343Z" fill="#000066"/>
<path d="M66.9006 16.957L66.4859 20.0544C66.4859 20.0544 65.6219 18.859 64.27 18.859C61.7264 18.859 60.4156 21.3993 60.4156 24.3173C60.4156 26.2012 61.3505 28.0478 63.2607 28.0478C64.635 28.0478 65.3969 27.0874 65.3969 27.0874L65.296 27.9075H67.528L69.2806 16.9738L66.9006 16.957ZM65.9151 22.9771C65.9151 24.1915 65.315 25.8139 64.0715 25.8139C63.2457 25.8139 62.8585 25.1191 62.8585 24.029C62.8585 22.2462 63.6574 21.0702 64.6659 21.0702C65.4913 21.0702 65.9151 21.6381 65.9151 22.9771Z" fill="#000066"/>
<path d="M3.65709 27.9167L5.05373 19.662L5.25898 27.9167H6.83947L9.78815 19.662L8.48198 27.9167H10.8307L12.6393 16.9685L8.90829 16.9399L6.68894 23.6431L6.62814 16.9685H3.20889L1.37427 27.9167H3.65709Z" fill="#000066"/>
<path d="M39.0053 27.9323C39.6731 24.1267 39.911 21.1212 41.8584 21.7436C42.1381 20.2706 42.8047 18.9896 43.1091 18.3662C43.1091 18.3662 43.0128 18.2227 42.4109 18.2227C41.3835 18.2227 40.0116 20.3123 40.0116 20.3123L40.2166 19.0203H38.08L36.649 27.9321H39.0053V27.9323Z" fill="#000066"/>
<path d="M52.7819 18.7988C51.208 18.7988 50.0023 19.3055 50.0023 19.3055L49.6693 21.2862C49.6693 21.2862 50.6652 20.8809 52.1693 20.8809C53.0239 20.8809 53.6486 20.9772 53.6486 21.673C53.6486 22.0956 53.5725 22.2516 53.5725 22.2516C53.5725 22.2516 52.8986 22.1953 52.5864 22.1953C50.3464 22.1953 48.5181 23.0439 48.5181 25.6024C48.5181 27.6187 49.8853 28.081 50.7328 28.081C52.3512 28.081 52.9925 27.0567 53.0292 27.0538L53.0103 27.9038H55.0309L55.932 21.5721C55.9322 18.8851 53.5937 18.7988 52.7819 18.7988ZM53.1311 23.9403C53.1749 24.3268 53.0312 26.1547 51.6496 26.1547C50.9366 26.1547 50.7518 25.6088 50.7518 25.2866C50.7518 24.6568 51.0927 23.9015 52.7739 23.9015C53.1657 23.9015 53.0655 23.9298 53.1311 23.9403Z" fill="#000066"/>
<path d="M58.2574 27.9323C58.6241 25.1324 59.3029 21.2018 61.1103 21.7436C61.3897 20.2705 61.1202 20.2744 60.5186 20.2744C59.4904 20.2744 59.2627 20.312 59.2627 20.312L59.468 19.02H57.3316L55.9006 27.932H58.2574V27.9323Z" fill="#000066"/>
<path d="M29.2963 27.0981L29.5835 25.1438C29.4267 25.1438 29.1959 25.211 28.9923 25.211C28.1937 25.211 28.1057 24.7855 28.1565 24.4709L28.8017 20.4832H30.0154L30.3085 18.3214H29.164L29.397 16.9771H27.1027C27.0522 17.0277 25.7484 24.5379 25.7484 25.4523C25.7484 26.8061 26.5069 27.4091 27.5765 27.3994C28.414 27.3923 29.0663 27.16 29.2963 27.0981Z" fill="white"/>
<path d="M30.0232 23.3721C30.0232 26.6213 32.1633 27.3934 33.9865 27.3934C35.6693 27.3934 36.4098 27.0164 36.4098 27.0164L36.814 24.7988C36.814 24.7988 35.5339 25.364 34.3778 25.364C31.9142 25.364 32.3457 23.5232 32.3457 23.5232H37.0081C37.0081 23.5232 37.3092 22.0334 37.3092 21.4263C37.3092 19.9113 36.5567 18.0654 34.0378 18.0654C31.7309 18.0659 30.0232 20.5569 30.0232 23.3721ZM34.0465 20.1246C35.3413 20.1246 35.1025 21.5827 35.1025 21.7007H32.5553C32.5553 21.5501 32.796 20.1246 34.0465 20.1246Z" fill="white"/>
<path d="M48.5748 27.0972L48.9853 24.5906C48.9853 24.5906 47.8595 25.1562 47.0869 25.1562C45.4595 25.1562 44.8068 23.9108 44.8068 22.5728C44.8068 19.8586 46.2071 18.3653 47.7659 18.3653C48.9349 18.3653 49.8732 19.0231 49.8732 19.0231L50.2477 16.5876C50.2477 16.5876 48.8564 16.0234 47.6638 16.0234C45.0152 16.0234 42.4386 18.3261 42.4386 22.6506C42.4386 25.5182 43.8299 27.4121 46.5677 27.4121C47.3418 27.4123 48.5748 27.0972 48.5748 27.0972Z" fill="white"/>
<path d="M16.6778 18.1008C15.1046 18.1008 13.8986 18.6075 13.8986 18.6075L13.5657 20.5882C13.5657 20.5882 14.5611 20.1829 16.0657 20.1829C16.92 20.1829 17.545 20.2792 17.545 20.975C17.545 21.3976 17.4684 21.5536 17.4684 21.5536C17.4684 21.5536 16.7945 21.497 16.4825 21.497C14.4983 21.497 12.4139 22.3456 12.4139 24.9042C12.4139 26.9202 13.7814 27.3828 14.6289 27.3828C16.2476 27.3828 16.9453 26.3302 16.9825 26.327L16.9069 27.2056H18.9271L19.8283 20.8736C19.8283 18.1873 17.49 18.1008 16.6778 18.1008ZM17.1693 23.2564C17.213 23.6432 16.9273 25.4562 15.546 25.4562C14.8334 25.4562 14.6481 24.9108 14.6481 24.5881C14.6481 23.9588 14.9893 23.2033 16.6705 23.2033C17.0615 23.2038 17.1034 23.2457 17.1693 23.2564Z" fill="white"/>
<path d="M21.9755 27.3367C22.4923 27.3367 25.4466 27.4683 25.4466 24.4134C25.4466 21.5572 22.7119 22.1214 22.7119 20.974C22.7119 20.4028 23.1577 20.2229 23.9724 20.2229C24.2958 20.2229 25.5402 20.326 25.5402 20.326L25.8296 18.2958C25.8296 18.2961 25.0242 18.1152 23.7129 18.1152C22.0157 18.1152 20.2929 18.7942 20.2929 21.1173C20.2929 23.7497 23.1655 23.4855 23.1655 24.5944C23.1655 25.3346 22.3629 25.3948 21.7445 25.3948C20.6742 25.3948 19.7105 25.0268 19.7071 25.0443L19.4011 27.054C19.4566 27.0711 20.0509 27.3367 21.9755 27.3367Z" fill="white"/>
<path d="M67.5788 16.279L67.0839 19.3565C67.0839 19.3565 66.2204 18.161 64.8685 18.161C62.7663 18.161 61.0142 20.701 61.0142 23.6195C61.0142 25.5035 61.9487 27.3494 63.8592 27.3494C65.2335 27.3494 65.9954 26.3891 65.9954 26.3891L65.8945 27.2093H68.126L69.8787 16.2754L67.5788 16.279ZM66.5134 22.2794C66.5134 23.4938 65.9135 25.116 64.6695 25.116C63.8439 25.116 63.457 24.4214 63.457 23.3312C63.457 21.5487 64.2559 20.3725 65.2639 20.3725C66.0898 20.3723 66.5134 20.9409 66.5134 22.2794Z" fill="white"/>
<path d="M4.25551 27.219L5.65215 18.9643L5.85716 27.219H7.43789L10.3866 18.9643L9.0804 27.219H11.4291L13.238 16.2705H9.60593L7.34402 22.9881L7.22632 16.2705H3.87832L2.04346 27.219H4.25551Z" fill="white"/>
<path d="M39.6036 27.2343C40.2714 23.4284 40.3952 20.3381 41.9888 20.9038C42.2677 19.4307 42.5369 18.8609 42.8414 18.2375C42.8414 18.2375 42.6987 18.2075 42.399 18.2075C41.3716 18.2075 40.6104 19.6143 40.6104 19.6143L40.8149 18.3223H38.6787L37.2476 27.2343H39.6036Z" fill="white"/>
<path d="M53.8686 18.1006C52.2954 18.1006 51.0894 18.6073 51.0894 18.6073L50.7567 20.588C50.7567 20.588 51.7521 20.1827 53.2567 20.1827C54.111 20.1827 54.7356 20.2789 54.7356 20.9747C54.7356 21.3973 54.6594 21.5533 54.6594 21.5533C54.6594 21.5533 53.9856 21.4968 53.6733 21.4968C51.6894 21.4968 49.605 22.3454 49.605 24.9039C49.605 26.92 50.9722 27.3825 51.8197 27.3825C53.4384 27.3825 54.1361 26.3299 54.1731 26.3268L54.0979 27.2054C54.0979 27.2054 56.1174 27.2054 56.1181 27.2054L57.0191 20.8734C57.0194 18.1871 54.6808 18.1006 53.8686 18.1006ZM54.3608 23.2562C54.4046 23.6429 54.1186 25.456 52.7368 25.456C52.0242 25.456 51.8394 24.9105 51.8394 24.5878C51.8394 23.9586 52.1806 23.203 53.8615 23.203C54.2526 23.2035 54.2942 23.2454 54.3608 23.2562Z" fill="white"/>
<path d="M58.8654 27.2343C59.5335 23.4284 59.6573 20.3381 61.2504 20.9038C61.5298 19.4307 61.7993 18.8609 62.1035 18.2375C62.1035 18.2375 61.9607 18.2075 61.6611 18.2075C60.6337 18.2075 59.8725 19.6143 59.8725 19.6143L60.077 18.3223H57.9408L56.5096 27.2343H58.8654Z" fill="white"/>
<path d="M69.8291 25.8591C69.9456 25.8591 70.0603 25.8891 70.171 25.95C70.2826 26.009 70.3694 26.0958 70.4317 26.2081C70.4942 26.3198 70.5248 26.436 70.5248 26.5576C70.5248 26.6778 70.4942 26.7938 70.4327 26.9047C70.3716 27.0156 70.2858 27.1026 70.1751 27.1637C70.0647 27.2247 69.949 27.2554 69.8288 27.2554C69.7077 27.2554 69.5919 27.2247 69.4813 27.1637C69.3709 27.1021 69.2853 27.0156 69.224 26.9047C69.1617 26.7938 69.1313 26.6778 69.1313 26.5576C69.1313 26.436 69.1622 26.3198 69.2247 26.2081C69.2875 26.0958 69.3745 26.0095 69.4857 25.95C69.5978 25.8891 69.7126 25.8591 69.8291 25.8591ZM69.8291 25.9742C69.7315 25.9742 69.6362 25.9995 69.5431 26.0504C69.4502 26.1002 69.3779 26.1721 69.3257 26.2661C69.2736 26.359 69.2474 26.4562 69.2474 26.5571C69.2474 26.658 69.2726 26.7545 69.3235 26.8467C69.3753 26.9386 69.4473 27.0107 69.5401 27.0626C69.6321 27.1133 69.7281 27.1389 69.8291 27.1389C69.9293 27.1389 70.026 27.1133 70.118 27.0626C70.2099 27.0107 70.2819 26.9386 70.333 26.8467C70.3843 26.7538 70.4093 26.658 70.4093 26.5571C70.4093 26.4562 70.3833 26.359 70.3313 26.2661C70.2795 26.1721 70.2072 26.1002 70.1138 26.0504C70.0214 25.9998 69.9268 25.9742 69.8291 25.9742ZM69.5239 26.9432V26.1918H69.7819C69.8697 26.1918 69.9339 26.1989 69.9728 26.2133C70.0122 26.2267 70.0431 26.2508 70.0671 26.2856C70.0907 26.3202 70.1027 26.3566 70.1027 26.3956C70.1027 26.4504 70.0827 26.4984 70.0433 26.5389C70.0049 26.5793 69.9531 26.6027 69.8884 26.6071C69.9142 26.6183 69.9356 26.6317 69.9521 26.6468C69.982 26.6766 70.019 26.7263 70.0628 26.7957L70.1544 26.9429H70.0064L69.9404 26.8247C69.8879 26.7314 69.8458 26.6734 69.8137 26.6497C69.7916 26.6324 69.7593 26.6239 69.7167 26.6239H69.6459V26.9434L69.5239 26.9432ZM69.645 26.5203H69.7919C69.8621 26.5203 69.9096 26.5099 69.9349 26.4889C69.9604 26.4684 69.9738 26.4404 69.9738 26.4055C69.9738 26.3834 69.9677 26.3634 69.9555 26.3466C69.9431 26.3285 69.9258 26.3156 69.9037 26.3066C69.8816 26.2981 69.842 26.2937 69.7826 26.2937H69.6452V26.5203" fill="white"/>
</svg>
