<svg width="72" height="44" viewBox="0 0 72 44" fill="none" xmlns="http://www.w3.org/2000/svg">
<path d="M40.7114 11.9627L40.555 11.68L39.4639 11.4636L40.0108 10.7027L39.9081 10.5174C38.8327 8.72528 37.5176 7.0995 35.9998 5.6949C32.1775 2.15694 27.1058 -5.34058e-05 21.5408 -5.34058e-05C9.64362 -5.34058e-05 0 9.8501 0 22C0 34.1508 9.64362 44 21.5408 44C27.1058 44 32.1775 41.844 35.9998 38.306C40.3496 34.2803 43.0807 28.4672 43.0807 22C43.0807 18.3845 42.2246 14.9723 40.7114 11.9627Z" fill="#CC0000"/>
<path d="M50.4601 0.000404358C44.8951 0.000404358 39.8225 2.15646 36.0002 5.69537C37.5171 7.09902 38.8322 8.7248 39.9077 10.5179L40.0113 10.7022L39.4634 11.4641L40.5546 11.6796L40.711 11.9631C42.2242 14.9727 43.0812 18.384 43.0812 21.9995C43.0812 28.4667 40.3491 34.2807 36.0002 38.3055C39.8225 41.8444 44.8951 43.9995 50.4601 43.9995C62.3564 43.9995 72 34.1503 72 21.9995C72 9.85056 62.3564 0.000404358 50.4601 0.000404358Z" fill="#FF9900"/>
<path d="M13.0181 19.7814H15.6743L13.6012 30.9351H10.9469L13.0181 19.7814Z" fill="#000066"/>
<path d="M5.04752 19.7814H11.9424L11.5472 21.8912H7.30386L6.87814 24.1928H10.967L10.5912 26.3016H6.48851L6.02113 28.8272H10.2617L9.87025 30.9351H2.97534L5.04752 19.7814Z" fill="#000066"/>
<path d="M20.7301 25.3378C20.7439 25.1469 20.7513 24.9975 20.7513 24.8784C20.7513 24.1355 20.3108 23.6998 19.5612 23.6998C18.7606 23.6998 18.1877 24.2839 17.9554 25.3378H20.7301ZM22.06 30.7823C21.1974 31.0337 20.3737 31.1538 19.4918 31.1528C16.6783 31.1509 15.2123 29.7482 15.2123 27.0581C15.2123 23.92 17.0781 21.6099 19.6102 21.6099C21.6824 21.6099 23.0438 22.9048 23.0438 24.9323C23.0438 25.6063 22.9531 26.2632 22.7347 27.1905H17.6926C17.6732 27.3313 17.6676 27.3927 17.6676 27.4769C17.6676 28.5374 18.4145 29.0771 19.8749 29.0771C20.7745 29.0771 21.5871 28.8994 22.4903 28.4986L22.06 30.7823Z" fill="#000066"/>
<path d="M50.2478 25.6878C50.2478 23.3928 48.8744 21.6063 46.2876 21.6063C43.3066 21.6063 41.377 23.7785 41.377 26.9847C41.377 29.2787 42.5162 31.1531 45.3381 31.1531C48.1886 31.1531 50.2478 29.4885 50.2478 25.6878ZM47.5296 25.6528C47.5296 27.72 46.7541 28.9479 45.5278 28.9479C44.6365 28.963 44.0951 28.1407 44.0951 26.9156C44.0951 25.4591 44.8836 23.8134 46.1562 23.8134C47.1798 23.8134 47.5296 24.7067 47.5296 25.6528Z" fill="#000066"/>
<path d="M51.3152 24.2053C51.454 23.4179 51.578 22.6495 51.6595 21.8262H54.1241L53.9038 23.313H53.9334C54.7025 22.2988 55.4956 21.6182 56.8829 21.6182C58.4146 21.6182 59.2328 23.0058 59.2152 24.7885C59.2096 25.401 59.1402 25.8367 58.9746 26.6856L58.1916 30.9343H55.5364L56.3202 26.6695C56.4063 26.1978 56.4924 25.7611 56.4961 25.2885C56.5016 24.7469 56.2157 24.2053 55.4864 24.2393C54.3767 24.2393 53.7085 25.3934 53.5077 26.7394L52.7229 30.9343H50.0676L51.3152 24.2053Z" fill="#000066"/>
<path d="M60.8701 21.8269H63.5254L61.8391 30.9351H59.1848L60.8701 21.8269Z" fill="#000066"/>
<path d="M29.303 30.8002C28.7774 31.01 28.0758 31.1499 27.0532 31.1499C24.8311 31.1499 23.4576 29.2765 23.4576 26.9815C23.4576 23.9851 25.4456 21.6022 28.3683 21.6022C29.0115 21.6022 29.9907 21.831 30.7653 22.2157L30.2905 24.4445C29.7584 24.1089 29.0846 23.9161 28.4997 23.9161C27.1411 23.9161 26.1749 24.9672 26.1749 26.8586C26.1749 27.9447 26.8773 28.8369 27.9879 28.8369C28.6459 28.8369 29.1133 28.716 29.6843 28.4352L29.303 30.8002Z" fill="#000066"/>
<path d="M69.2511 30.8002C68.7254 31.01 68.023 31.1499 66.9994 31.1499C64.7782 31.1499 63.4048 29.2765 63.4048 26.9815C63.4048 23.9851 65.3918 21.6022 68.3164 21.6022C68.9587 21.6022 69.9378 21.831 70.7125 22.2157L70.2368 24.4445C69.7046 24.1089 69.0318 23.9161 68.4469 23.9161C67.0873 23.9161 66.122 24.9672 66.122 26.8586C66.122 27.9447 66.8254 28.8369 67.9351 28.8369C68.5931 28.8369 69.0605 28.716 69.6306 28.4352L69.2511 30.8002Z" fill="#000066"/>
<path d="M36.8827 21.8269C36.5449 24.6437 35.9471 27.5001 35.4788 30.3226L35.3658 30.9351H38.0525C39.0206 25.4859 39.3464 23.9338 41.3751 24.4801L42.3505 21.9006C40.9364 21.3704 40.0248 22.1275 39.1992 23.2041C39.2751 22.7201 39.4139 22.2523 39.3816 21.8269H36.8827Z" fill="#000066"/>
<path d="M34.8992 28.9052C33.796 29.0677 33.2907 28.752 33.2907 28.1395C33.2907 27.7028 33.3925 27.2482 33.5091 26.5657L33.9617 24.0306H35.3518L35.7581 21.8264H34.3846L34.7807 19.6495H32.1255L30.8493 26.5827C30.6743 27.5459 30.6151 28.0006 30.6151 28.4552C30.6151 30.3608 31.7294 31.1472 33.0714 31.1472C33.535 31.1472 34.0228 31.0877 34.5124 31.0026L34.8992 28.9052Z" fill="#000066"/>
<path d="M23.3346 17.6137H21.8825L21.9158 16.9086C21.4725 17.4653 20.8811 17.731 20.0778 17.731C19.1283 17.731 18.4749 16.9748 18.4749 15.8727C18.4749 14.2166 19.6095 13.2506 21.554 13.2506C21.7539 13.2506 22.0075 13.2686 22.2694 13.3026C22.323 13.0776 22.3379 12.9822 22.3379 12.8612C22.3379 12.4103 22.0324 12.2421 21.2134 12.2421C20.3555 12.2336 19.6484 12.4519 19.3568 12.5474C19.3754 12.4349 19.6003 11.018 19.6003 11.018C20.4748 10.7562 21.0496 10.6588 21.6983 10.6588C23.2041 10.6588 24.0019 11.3479 24 12.6523C24.0028 13.003 23.9464 13.434 23.8584 14.0011C23.7067 14.986 23.379 17.0995 23.3346 17.6137ZM22.0593 14.5815C21.876 14.5607 21.7946 14.5541 21.6687 14.5541C20.6747 14.5541 20.1722 14.9019 20.1722 15.59C20.1722 16.0144 20.4165 16.2829 20.7997 16.2829C21.5142 16.2829 22.0287 15.5881 22.0593 14.5815Z" fill="#000066"/>
<path d="M17.7423 17.6135H15.9885L16.9945 11.1832L14.7511 17.6135H13.5563L13.4091 11.2191L12.3522 17.6135H10.7113L12.0829 9.24737H14.6039L14.7566 13.93L16.2948 9.24737H19.0981L17.7423 17.6135Z" fill="#000066"/>
<path d="M50.9562 17.6137H49.5013L49.5356 16.9086C49.0923 17.4653 48.5018 17.731 47.6985 17.731C46.7471 17.731 46.0964 16.9748 46.0964 15.8727C46.0964 14.2166 47.2292 13.2506 49.1746 13.2506C49.3727 13.2506 49.6281 13.2686 49.8891 13.3026C49.9428 13.0776 49.9576 12.9822 49.9576 12.8612C49.9576 12.4103 49.6531 12.2421 48.834 12.2421C47.9761 12.2336 47.2672 12.4519 46.9757 12.5474C46.996 12.4349 47.2218 11.018 47.2218 11.018C48.0946 10.7562 48.6721 10.6588 49.319 10.6588C50.8257 10.6588 51.6216 11.3479 51.6198 12.6523C51.6244 13.003 51.567 13.434 51.4791 14.0011C51.3264 14.986 50.9997 17.0995 50.9562 17.6137ZM49.679 14.5815C49.4948 14.5607 49.4152 14.5541 49.2894 14.5541C48.2945 14.5541 47.7929 14.9019 47.7929 15.59C47.7929 16.0144 48.0363 16.2829 48.4203 16.2829C49.1339 16.2829 49.6485 15.5881 49.679 14.5815Z" fill="#000066"/>
<path d="M31.1264 17.5102C30.647 17.6652 30.2722 17.7305 29.8668 17.7305C28.97 17.7305 28.4823 17.2059 28.4823 16.237C28.4693 15.9355 28.61 15.1453 28.722 14.4231C28.8238 13.788 29.4827 9.78021 29.4827 9.78021H31.2254L31.0218 10.8105H32.0741L31.8372 12.4448H30.7803C30.5776 13.7397 30.2888 15.3504 30.2861 15.564C30.2861 15.9156 30.4693 16.0688 30.8867 16.0688C31.0866 16.0688 31.2402 16.047 31.3596 16.0045L31.1264 17.5102Z" fill="#000066"/>
<path d="M35.4904 13.4221C35.5015 13.2803 35.6755 12.2075 34.6797 12.2075C34.1253 12.2075 33.7274 12.6394 33.5673 13.4221H35.4904ZM36.4705 17.4553C35.8708 17.6416 35.2952 17.7332 34.6825 17.7304C32.7315 17.7295 31.7135 16.6888 31.7135 14.6953C31.7135 12.371 33.0073 10.6592 34.7639 10.6592C36.2012 10.6592 37.1184 11.6167 37.1184 13.1187C37.1184 13.6196 37.0564 14.1064 36.9037 14.7936H33.4331C33.3155 15.7804 33.9347 16.1916 34.949 16.1916C35.5719 16.1916 36.1346 16.0602 36.7602 15.7634L36.4705 17.4553Z" fill="#000066"/>
<path d="M24.3868 12.9609C24.3868 13.822 24.7959 14.4146 25.7223 14.8608C26.4313 15.2011 26.5414 15.3022 26.5414 15.6113C26.5414 16.0347 26.2286 16.2266 25.5354 16.2266C25.0116 16.2266 24.5257 16.1434 23.9639 15.9582C23.9639 15.9582 23.7344 17.4592 23.7233 17.5301C24.1222 17.618 24.4766 17.7002 25.5474 17.7305C27.3975 17.7305 28.2517 17.0121 28.2517 15.4572C28.2517 14.5224 27.8945 13.9732 27.0162 13.5602C26.2813 13.2161 26.1962 13.1386 26.1962 12.8219C26.1962 12.4542 26.4886 12.2661 27.0541 12.2661C27.3984 12.2661 27.8685 12.303 28.3146 12.3682L28.5645 10.7897C28.1092 10.716 27.4215 10.6583 27.0208 10.6583C25.0597 10.6583 24.3813 11.7037 24.3868 12.9609Z" fill="#000066"/>
<path d="M44.9968 10.8374C45.4836 10.8374 45.9389 10.966 46.5637 11.2892L46.8515 9.47253C46.5933 9.37044 45.69 8.7655 44.9246 8.7655C43.7502 8.7655 42.758 9.36099 42.0611 10.3402C41.0431 9.99618 40.6248 10.6919 40.1121 11.3857L39.6567 11.4934C39.691 11.2666 39.7224 11.0388 39.7122 10.81H38.101C37.8816 12.916 37.4929 15.0493 37.1866 17.1562L37.1079 17.6137H38.8608C39.1532 15.6703 39.3143 14.4274 39.4105 13.5842L40.0713 13.2109C40.1704 12.8347 40.4795 12.709 41.0986 12.725C41.0181 13.1683 40.9737 13.6353 40.9737 14.1192C40.9737 16.3452 42.1528 17.73 44.038 17.73C44.5248 17.73 44.9422 17.6657 45.5891 17.4861L45.8955 15.5796C45.3161 15.8707 44.8385 16.0087 44.4063 16.0087C43.3874 16.0087 42.771 15.2393 42.771 13.9699C42.771 12.1277 43.6872 10.8374 44.9968 10.8374Z" fill="#000066"/>
<path d="M57.6479 16.0423C57.0528 16.0423 56.7492 15.5905 56.7492 14.7001C56.7492 13.3645 57.3156 12.4155 58.1097 12.4155C58.7122 12.4155 59.0389 12.8834 59.0389 13.7483C59.0389 15.0971 58.4632 16.0423 57.6479 16.0423ZM59.8413 9.24805L59.4516 11.665C58.9722 11.0203 58.4586 10.5534 57.7774 10.5534C56.8936 10.5534 56.0884 11.2387 55.56 12.2482C54.8251 12.0913 54.0681 11.8276 54.0681 11.8276V11.8332C54.1264 11.2708 54.1504 10.9277 54.1449 10.8105H52.5345C52.3161 12.9165 51.9246 15.0489 51.6201 17.1567L51.5387 17.6142H53.2944C53.5304 16.0442 53.7117 14.7388 53.845 13.7038C54.4447 13.1509 54.7437 12.6688 55.3489 12.7009C55.0824 13.3645 54.926 14.1254 54.926 14.908C54.926 16.6085 55.7673 17.7305 57.0426 17.7305C57.684 17.7305 58.1772 17.5055 58.6576 16.9809L58.5771 17.6133H60.2337L61.5701 9.24805H59.8413Z" fill="#000066"/>
<path d="M18.2468 17.1167H16.4939L17.499 10.6864L15.2556 17.1167H14.0608L13.9128 10.7232L12.8568 17.1167H11.2168L12.5875 8.75244H15.1085L15.1788 13.9304L16.8799 8.75244H19.6036L18.2468 17.1167Z" fill="white"/>
<path d="M23.8397 17.1167H22.3876L22.42 16.4135C21.9776 16.9693 21.3853 17.2349 20.5829 17.2349C19.6324 17.2349 18.9808 16.4768 18.9808 15.3756C18.9808 13.7186 20.1136 12.7536 22.0599 12.7536C22.258 12.7536 22.5125 12.7734 22.7744 12.8065C22.829 12.5815 22.8429 12.4861 22.8429 12.3641C22.8429 11.9133 22.5375 11.7469 21.7175 11.7469C20.8605 11.7365 20.1525 11.9539 19.8619 12.0522C19.8804 11.9388 20.1053 10.5219 20.1053 10.5219C20.979 10.2591 21.5556 10.1608 22.2034 10.1608C23.7082 10.1608 24.5069 10.8518 24.5051 12.1562C24.5079 12.5059 24.4514 12.9388 24.3626 13.5041C24.2108 14.489 23.8841 16.6035 23.8397 17.1167ZM22.5643 14.0863C22.3802 14.0636 22.2987 14.058 22.1738 14.058C21.1798 14.058 20.6763 14.4068 20.6763 15.093C20.6763 15.5165 20.9216 15.7877 21.3057 15.7877C22.0192 15.7877 22.5338 15.093 22.5643 14.0863Z" fill="white"/>
<path d="M47.3538 8.97647L47.0679 10.7932C46.4431 10.4709 45.9887 10.3404 45.501 10.3404C44.1933 10.3404 43.2743 11.6335 43.2743 13.4748C43.2743 14.7452 43.8916 15.5127 44.9115 15.5127C45.3437 15.5127 45.8203 15.3756 46.4006 15.0835L46.0915 16.9901C45.4464 17.1696 45.029 17.2349 44.5422 17.2349C42.6551 17.2349 41.4797 15.8492 41.4797 13.6232C41.4797 10.6315 43.1049 8.54261 45.4288 8.54261C46.1942 8.54261 47.0984 8.87344 47.3538 8.97647Z" fill="white"/>
<path d="M51.4602 17.1167H50.0072L50.0396 16.4135C49.5963 16.9693 49.0058 17.2349 48.2025 17.2349C47.252 17.2349 46.6005 16.4768 46.6005 15.3756C46.6005 13.7186 47.7333 12.7536 49.6786 12.7536C49.8786 12.7536 50.1321 12.7734 50.3931 12.8065C50.4468 12.5815 50.4616 12.4861 50.4616 12.3641C50.4616 11.9133 50.1571 11.7469 49.3381 11.7469C48.4801 11.7365 47.7731 11.9539 47.4815 12.0522C47.5 11.9388 47.7259 10.5219 47.7259 10.5219C48.5986 10.2591 49.1743 10.1608 49.823 10.1608C51.3279 10.1608 52.1256 10.8518 52.1238 12.1562C52.1284 12.5059 52.071 12.9388 51.9831 13.5041C51.8304 14.489 51.5037 16.6035 51.4602 17.1167ZM50.183 14.0863C49.9998 14.0636 49.9193 14.058 49.7934 14.058C48.8004 14.058 48.2969 14.4068 48.2969 15.093C48.2969 15.5165 48.5412 15.7877 48.9244 15.7877C49.6379 15.7877 50.1544 15.093 50.183 14.0863Z" fill="white"/>
<path d="M31.6317 17.0137C31.1523 17.1678 30.7775 17.2349 30.3721 17.2349C29.4772 17.2349 28.9867 16.7093 28.9867 15.7405C28.9747 15.4389 29.1153 14.6497 29.2273 13.9275C29.3282 13.2914 29.9871 9.28366 29.9871 9.28366H31.7298L31.5262 10.314H32.4212L32.1824 11.9492H31.2856C31.0829 13.2432 30.7932 14.8548 30.7905 15.0675C30.7905 15.4191 30.9746 15.5722 31.392 15.5722C31.591 15.5722 31.7446 15.5514 31.864 15.5089L31.6317 17.0137Z" fill="white"/>
<path d="M35.9956 12.9256C36.0058 12.7829 36.1807 11.711 35.1849 11.711C34.6296 11.711 34.2335 12.1449 34.0715 12.9256H35.9956ZM36.9757 16.9608C36.3769 17.147 35.7976 17.2368 35.1877 17.2358C33.2349 17.2339 32.2196 16.1933 32.2196 14.2007C32.2196 11.8745 33.5125 10.1618 35.2682 10.1618C36.7064 10.1618 37.6235 11.1203 37.6235 12.625C37.6235 13.1241 37.5597 13.6109 37.4088 14.2981H33.9382C33.8207 15.2858 34.4389 15.6961 35.4533 15.6961C36.0761 15.6961 36.6388 15.5647 37.2663 15.2669L36.9757 16.9608Z" fill="white"/>
<path d="M24.8904 12.4653C24.8904 13.3264 25.2995 13.9191 26.2259 14.3643C26.9367 14.7055 27.0468 14.8066 27.0468 15.1157C27.0468 15.5401 26.7331 15.731 26.0399 15.731C25.5161 15.731 25.0293 15.6488 24.4684 15.4636C24.4684 15.4636 24.238 16.9627 24.2278 17.0345C24.6257 17.1224 24.9811 17.2046 26.0519 17.2358C27.902 17.2358 28.7571 16.5165 28.7571 14.9616C28.7571 14.0259 28.399 13.4776 27.5207 13.0655C26.7858 12.7215 26.7007 12.644 26.7007 12.3264C26.7007 11.9587 26.9932 11.7696 27.5596 11.7696C27.9029 11.7696 28.374 11.8084 28.8191 11.8717L29.069 10.2941C28.6146 10.2214 27.927 10.1618 27.5253 10.1618C25.5642 10.1618 24.8849 11.2082 24.8904 12.4653Z" fill="white"/>
<path d="M58.1522 15.5458C58.9694 15.5458 59.5432 14.6006 59.5432 13.2536C59.5432 12.3897 59.2156 11.9199 58.614 11.9199C57.8181 11.9199 57.2535 12.8661 57.2535 14.2055C57.2535 15.0959 57.5552 15.5458 58.1522 15.5458ZM60.7398 17.1177H59.0814L59.1637 16.4844C58.6815 17.009 58.1901 17.2358 57.545 17.2358C56.2725 17.2358 55.4303 16.1139 55.4303 14.4125C55.4303 12.1496 56.7362 10.2421 58.2827 10.2421C58.9629 10.2421 59.4775 10.5248 59.956 11.1694L60.3437 8.75248H62.0753L60.7398 17.1177Z" fill="white"/>
<path d="M53.038 10.313C52.8205 12.4189 52.4309 14.5523 52.1245 16.6592L52.0449 17.1157H53.7987C54.4262 12.9558 54.5771 12.1429 55.5609 12.245C55.7173 11.3934 56.0088 10.6476 56.2254 10.2723C55.4933 10.1154 55.0824 10.5398 54.5447 11.3442C54.5863 10.9964 54.665 10.658 54.6493 10.313H53.038Z" fill="white"/>
<path d="M38.6067 10.313C38.3855 12.4189 37.9968 14.5523 37.6905 16.6592L37.6118 17.1157H39.3656C39.9931 12.9558 40.144 12.1429 41.1259 12.245C41.2832 11.3934 41.5766 10.6476 41.7932 10.2723C41.0593 10.1154 40.6484 10.5398 40.1116 11.3442C40.1541 10.9964 40.2319 10.658 40.2171 10.313H38.6067Z" fill="white"/>
<path d="M61.9597 16.5524H62.0198C62.042 16.5524 62.0661 16.5543 62.0855 16.5439C62.1022 16.5326 62.1124 16.5089 62.1124 16.4891C62.1124 16.4711 62.1004 16.4513 62.0874 16.4418C62.068 16.4305 62.0383 16.4333 62.0171 16.4333H61.9597V16.5524ZM61.9597 16.8171H61.8542V16.3501H62.0476C62.0883 16.3501 62.1281 16.3511 62.1651 16.3738C62.2012 16.3983 62.2225 16.4437 62.2225 16.49C62.2225 16.5439 62.1929 16.593 62.1438 16.611L62.2281 16.8171H62.1096L62.0393 16.6318H61.9597V16.8171ZM62.03 16.9891C62.2503 16.9891 62.428 16.8076 62.428 16.5836C62.428 16.3605 62.2503 16.179 62.03 16.179C61.8116 16.179 61.6339 16.3605 61.6339 16.5836C61.6339 16.8076 61.8116 16.9891 62.03 16.9891ZM61.5099 16.5836C61.5099 16.2887 61.7431 16.0514 62.03 16.0514C62.3206 16.0514 62.552 16.2887 62.552 16.5836C62.552 16.8776 62.3206 17.1167 62.03 17.1167C61.7431 17.1167 61.5099 16.8776 61.5099 16.5836Z" fill="white"/>
<path d="M68.8941 35.2114H68.6118V35.0545H69.3439V35.2114H69.0625V35.9902H68.8941V35.2114Z" fill="#FF9900"/>
<path d="M69.5593 35.0542H69.8203L70.0591 35.6866L70.2951 35.0542H70.5561V35.99H70.3876V35.2745H70.3839L70.1267 35.99H69.9897L69.7315 35.2745H69.7278V35.99H69.5593V35.0542Z" fill="#FF9900"/>
</svg>
