<svg width="72" height="23" viewBox="0 0 72 23" fill="none" xmlns="http://www.w3.org/2000/svg">
<path d="M31.1999 22.6684H25.3674L29.0155 0.403809H34.8477L31.1999 22.6684Z" fill="#00579F"/>
<path d="M52.3434 0.947893C51.1929 0.4974 49.3683 0 47.1121 0C41.3523 0 37.2963 3.03162 37.2714 7.36592C37.2235 10.5638 40.1754 12.3399 42.3831 13.4062C44.6396 14.4957 45.4067 15.2069 45.4067 16.1781C45.3837 17.6696 43.5833 18.3572 41.904 18.3572C39.5754 18.3572 38.3277 18.0027 36.4316 17.1729L35.6636 16.8171L34.8474 21.8151C36.2154 22.4302 38.7356 22.9761 41.3523 23C47.4721 23 51.4564 20.0153 51.5036 15.3964C51.5269 12.8619 49.9682 10.9198 46.6078 9.33285C44.5678 8.31413 43.3185 7.62721 43.3185 6.58488C43.3425 5.6373 44.3752 4.66674 46.678 4.66674C48.5741 4.6192 49.9672 5.06907 51.0226 5.51924L51.5501 5.75567L52.3434 0.947893Z" fill="#00579F"/>
<path d="M60.0951 14.7808C60.5754 13.5018 62.4237 8.55139 62.4237 8.55139C62.3995 8.59893 62.9031 7.24871 63.1911 6.41982L63.5987 8.33827C63.5987 8.33827 64.7032 13.6677 64.943 14.7808C64.0315 14.7808 61.2471 14.7808 60.0951 14.7808ZM67.2946 0.403809H62.7832C61.3919 0.403809 60.335 0.806135 59.7347 2.25111L51.0713 22.6681H57.1911C57.1911 22.6681 58.1987 19.9201 58.4152 19.3283C59.0866 19.3283 65.04 19.3283 65.9037 19.3283C66.0711 20.1099 66.5996 22.6681 66.5996 22.6681H71.9999L67.2946 0.403809Z" fill="#00579F"/>
<path d="M20.4959 0.403809L14.7839 15.5861L14.1598 12.507C13.1038 8.95405 9.79186 5.09385 6.09595 3.17445L11.3279 22.6448H17.4956L26.6633 0.403809H20.4959Z" fill="#00579F"/>
<path d="M9.47993 0.403809H0.0960013L0 0.853671C7.32005 2.70129 12.168 7.1549 14.1598 12.5079L12.1198 2.27535C11.784 0.853357 10.7519 0.450715 9.47993 0.403809Z" fill="#FAA61A"/>
</svg>
