<svg width="28" height="28" viewBox="0 0 28 28" fill="none" xmlns="http://www.w3.org/2000/svg">
<path d="M26.4444 19.4444C24.5 19.4444 22.6333 19.1333 20.8911 18.5578C20.3467 18.3867 19.74 18.5111 19.3044 18.9311L15.8822 22.3533C11.48 20.1133 7.87111 16.52 5.63111 12.1022L9.05333 8.66444C9.48889 8.26 9.61333 7.65333 9.44222 7.10889C8.86667 5.36667 8.55556 3.5 8.55556 1.55556C8.55556 0.7 7.85556 0 7 0H1.55556C0.7 0 0 0.7 0 1.55556C0 16.1622 11.8378 28 26.4444 28C27.3 28 28 27.3 28 26.4444V21C28 20.1444 27.3 19.4444 26.4444 19.4444ZM24.8889 14H28C28 6.26889 21.7311 0 14 0V3.11111C20.02 3.11111 24.8889 7.98 24.8889 14ZM18.6667 14H21.7778C21.7778 9.70667 18.2933 6.22222 14 6.22222V9.33333C16.5822 9.33333 18.6667 11.4178 18.6667 14Z" fill="#F6F2EE"/>
</svg>
