<svg width="108" height="120" viewBox="0 0 108 120" fill="none" xmlns="http://www.w3.org/2000/svg">
<path d="M73.5494 101.849C69.9732 91.2148 64.2331 84.2484 57.652 79.7705L57.861 79.6123C74.9536 68.0453 75.9411 47.5793 75.2829 39.97C73.308 17.8421 54.5919 3.95774 26.3528 5.61955L25.9303 5.66888C19.9947 6.3649 5.48343 8.06686 0.0225466 0C-0.942762 44.2556 29.2709 57.1562 55.5572 53.1767C57.861 17.8421 14.5042 17.8421 14.5042 17.8421C46.3635 11.895 62.469 27.8348 64.7728 40.9541C66.0891 48.5631 64.7728 61.7699 57.5321 70.035C55.468 72.3442 53.0713 74.3217 50.427 75.9067C43.7822 73.1879 36.8013 72.331 30.6094 72.331V73.774C42.7651 73.774 47.4388 84.5757 55.3158 103.292V103.336C55.8422 104.588 56.3846 105.917 56.9519 107.308L56.9734 107.361C64.8708 126.729 77.6225 158 120 158V156.928C92.4031 156.928 82.2913 127.387 74.1524 103.611L73.5494 101.849Z" fill="#595450" fill-opacity="0.04"/>
<path d="M12.5293 86.5437C16.5969 88.9433 21.0513 90.6228 25.6943 91.507V120.239H12.5293V86.5437Z" fill="#595450" fill-opacity="0.04"/>
<path d="M12.5293 79.2738V48.2352C17.4662 51.537 21.0646 53.8326 25.6943 54.7947V82.0491C29.9069 82.1699 34.1243 81.6538 38.2011 80.5087C39.6693 82.3209 40.8869 84.3212 41.8216 86.4559C38.8739 86.8376 35.9072 87.0567 32.9353 87.1121C26.7805 87.2312 20.6693 86.0582 14.999 83.6701C9.32867 81.2816 4.22598 77.7311 0.0225466 73.2491V72.0248C3.69957 74.6157 7.92173 77.3467 12.5293 79.2738Z" fill="#595450" fill-opacity="0.04"/>
</svg>
