<svg width="98" height="128" viewBox="0 0 98 128" fill="none" xmlns="http://www.w3.org/2000/svg">
<path d="M60.0654 82.5109C57.1448 73.8955 52.457 68.2519 47.0824 64.6242L47.2532 64.4961C61.2121 55.1253 62.0185 38.5452 61.481 32.3807C59.8682 14.4544 44.5834 3.20627 21.5215 4.55255L21.1764 4.59251C16.329 5.15638 4.47814 6.53518 0.0184131 0C-0.769922 35.8527 23.9046 46.3038 45.3717 43.0799C47.2532 14.4544 11.8451 14.4544 11.8451 14.4544C37.8635 9.63645 51.0163 22.5497 52.8978 33.178C53.9728 39.3423 52.8978 50.0414 46.9846 56.7373C45.2989 58.608 43.3415 60.21 41.182 61.494C35.7554 59.2915 30.0544 58.5972 24.9977 58.5972V59.7663C34.9248 59.7663 38.7417 68.517 45.1746 83.6799V83.7155C45.6045 84.7291 46.0475 85.8064 46.5107 86.9328L46.5282 86.9758C52.9779 102.666 63.3917 128 98 128V127.132C75.4625 127.132 67.2046 103.2 60.5578 83.9376L60.0654 82.5109Z" fill="url(#paint0_linear_378_423)"/>
<path d="M10.2323 70.1113C13.5541 72.0554 17.1919 73.416 20.9837 74.1322V97H10.2323V70.1113Z" fill="url(#paint1_linear_378_423)"/>
<path d="M10.2323 64.2219V39.0766C14.2641 41.7515 17.2027 43.6112 20.9837 44.3906V66.4702C24.424 66.568 27.8682 66.1499 31.1976 65.2223C32.3966 66.6904 33.391 68.3109 34.1543 70.0402C31.747 70.3494 29.3242 70.5269 26.8972 70.5718C21.8707 70.6683 16.8799 69.718 12.2491 67.7834C7.61841 65.8484 3.45122 62.972 0.0184131 59.3411V58.3492C3.02132 60.4481 6.46941 62.6606 10.2323 64.2219Z" fill="url(#paint2_linear_378_423)"/>
<defs>
<linearGradient id="paint0_linear_378_423" x1="5.50992" y1="82.661" x2="103.798" y2="82.661" gradientUnits="userSpaceOnUse">
<stop stop-color="#DDCF49"/>
<stop offset="1" stop-color="#A1C74F"/>
</linearGradient>
<linearGradient id="paint1_linear_378_423" x1="5.50992" y1="82.661" x2="103.798" y2="82.661" gradientUnits="userSpaceOnUse">
<stop stop-color="#DDCF49"/>
<stop offset="1" stop-color="#A1C74F"/>
</linearGradient>
<linearGradient id="paint2_linear_378_423" x1="5.50992" y1="82.661" x2="103.798" y2="82.661" gradientUnits="userSpaceOnUse">
<stop stop-color="#DDCF49"/>
<stop offset="1" stop-color="#A1C74F"/>
</linearGradient>
</defs>
</svg>
