<svg width="406" height="128" viewBox="0 0 406 128" fill="none" xmlns="http://www.w3.org/2000/svg">
<path d="M248.368 154.385L248.369 154.387L250.409 160.339L250.423 160.378C264.182 200.533 279.637 245.633 303.34 280.693C326.98 315.66 358.868 340.7 405.5 340.877V343.5C334.238 343.377 287.882 317.058 256 282.633C224.023 248.105 206.586 205.401 193.223 172.663L193.151 172.485L193.15 172.484L193.092 172.341C191.208 167.729 189.404 163.311 187.652 159.15V159.102V159.001L187.613 158.908C174.296 127.299 163.657 102.295 151.189 85.2036C144.949 76.6486 138.235 70.0523 130.474 65.5966C122.834 61.21 114.205 58.9124 104.062 58.8394V54.9609C124.843 55.0068 148.197 57.9241 170.422 67.0082L170.654 67.1028L170.868 66.9743C179.858 61.5919 188.006 54.8763 195.023 47.0341L195.026 47.0304C207.35 32.9782 214.616 14.7461 218.246 -3.17477C221.876 -21.0961 221.879 -38.7468 219.641 -51.6707L219.64 -51.672C211.786 -96.3532 156.973 -150.327 48.9809 -130.19L49.0726 -129.198V-129.698C49.0726 -129.198 49.073 -129.198 49.0739 -129.198L49.0785 -129.198L49.0977 -129.198L49.1757 -129.198C49.245 -129.197 49.3491 -129.196 49.4866 -129.194C49.7617 -129.191 50.1707 -129.184 50.7045 -129.169C51.7722 -129.14 53.339 -129.082 55.3314 -128.966C59.3163 -128.733 65.0029 -128.268 71.8034 -127.337C85.4074 -125.474 103.454 -121.751 121.251 -114.309C139.048 -106.867 156.569 -95.717 169.155 -79.016C181.677 -62.4 189.342 -40.2541 187.495 -10.7107C143.238 -4.10553 95.7732 -11.6724 59.7519 -39.4008C23.8855 -67.01 -0.717932 -114.672 0.546564 -188.47C10.0782 -175.569 26.6425 -170.445 43.2525 -168.817C60.3987 -167.136 77.7351 -169.166 87.7746 -170.342L87.7887 -170.344L87.7889 -170.344L89.2041 -170.509C136.884 -173.309 176.475 -162.998 204.966 -142.703C233.452 -122.413 250.88 -92.1205 254.209 -54.8685C256.431 -29.2042 253.081 39.7189 195.483 78.6553L195.472 78.6627L195.462 78.6707L194.754 79.2053L194.198 79.6257L194.775 80.0177C216.946 95.0872 236.302 118.54 248.368 154.385ZM42.1982 78.3869L42.8909 78.6763V77.9255V-26.0423C59.0514 -15.2581 71.0965 -7.6722 86.4324 -4.40221V87.3052V87.7911L86.9181 87.805C101.112 88.2114 115.322 86.4909 129.065 82.6692C133.772 88.5177 137.705 94.9436 140.768 101.788C131.032 103.023 121.235 103.734 111.422 103.917C90.6675 104.318 70.0605 100.367 50.9404 92.3228C31.8812 84.3032 14.724 72.3942 0.576283 57.3654V54.3878C12.8408 62.9852 26.8872 71.9897 42.1982 78.3869ZM86.4324 119.684V215.876H42.8909V103.368C56.3791 111.203 71.0997 116.72 86.4324 119.684Z" stroke="white" stroke-opacity="0.08"/>
</svg>
