<svg width="22" height="20" viewBox="0 0 22 20" fill="none" xmlns="http://www.w3.org/2000/svg">
<path d="M0 10.3324V9.66759C0.272277 9.37212 1.13449 8.50416 2.58663 7.06371L5.69059 4.01662L9.47525 0.0554017L9.80198 0L10.8094 0.720222L10.8639 1.02493C7.45132 5.5494 5.34571 8.54109 4.54703 10C5.00082 10.7572 5.90842 12.1145 7.2698 14.072C8.64934 16.0295 9.84736 17.6639 10.8639 18.9751L10.8094 19.2798L9.80198 20L9.47525 19.9446C6.98845 17.3407 4.71947 15.0231 2.66832 12.9917L0 10.3324ZM11.1634 10.3324V9.66759C11.4356 9.37212 12.2979 8.50416 13.75 7.06371L16.8267 4.01662L20.6386 0.0554017L20.9653 0L21.9728 0.720222L22 1.02493C18.6056 5.5494 16.5091 8.54109 15.7104 10C16.146 10.7572 17.0536 12.1145 18.4332 14.072C19.8127 16.0295 21.0016 17.6639 22 18.9751L21.9728 19.2798L20.9653 20L20.6386 19.9446C18.1337 17.3407 15.8556 15.0231 13.8045 12.9917L11.1634 10.3324Z" fill="#A1C74F"/>
</svg>
