<svg width="16" height="16" viewBox="0 0 16 16" fill="none" xmlns="http://www.w3.org/2000/svg">
<path d="M15.1111 11.1111C14 11.1111 12.9333 10.9333 11.9378 10.6044C11.6267 10.5067 11.28 10.5778 11.0311 10.8178L9.07556 12.7733C6.56 11.4933 4.49778 9.44 3.21778 6.91556L5.17333 4.95111C5.42222 4.72 5.49333 4.37333 5.39556 4.06222C5.06667 3.06667 4.88889 2 4.88889 0.888889C4.88889 0.4 4.48889 0 4 0H0.888889C0.4 0 0 0.4 0 0.888889C0 9.23556 6.76444 16 15.1111 16C15.6 16 16 15.6 16 15.1111V12C16 11.5111 15.6 11.1111 15.1111 11.1111ZM14.2222 8H16C16 3.58222 12.4178 0 8 0V1.77778C11.44 1.77778 14.2222 4.56 14.2222 8ZM10.6667 8H12.4444C12.4444 5.54667 10.4533 3.55556 8 3.55556V5.33333C9.47556 5.33333 10.6667 6.52444 10.6667 8Z" fill="white"/>
</svg>
