<svg width="80" height="41" viewBox="0 0 80 41" fill="none" xmlns="http://www.w3.org/2000/svg">
<g filter="url(#filter0_d_1260_3157)">
<path d="M54.8451 19.6304C54.8451 23.1166 54.1099 25.8453 52.6394 27.8166C51.1689 29.7696 49.1202 30.7461 46.4932 30.7461C43.2053 30.7461 40.9087 29.4228 39.6035 26.7762C38.8765 25.316 38.513 23.3995 38.513 21.0267C38.513 14.0726 41.2722 10.5955 46.7906 10.5955C52.1603 10.5955 54.8451 13.6071 54.8451 19.6304ZM55.1673 34.9897C55.0351 35.7746 54.969 36.4408 54.969 36.9884C54.969 37.4629 55.0186 38.1474 55.1177 39.0418L54.9195 39.3429C53.8786 39.2151 51.1028 39.1513 46.5923 39.1513C42.6931 39.1513 40.0578 39.2151 38.6865 39.3429L38.513 39.0418C38.6452 38.4759 38.7113 37.8006 38.7113 37.0157C38.7113 36.3769 38.67 35.7016 38.5874 34.9897L38.7361 34.6886C41.7926 34.8346 44.7418 34.9076 47.5836 34.9076C50.1611 34.9076 52.6146 34.8346 54.9442 34.6886L55.1673 34.9897ZM42.404 2.29979C42.404 2.66484 42.0653 3.43144 41.3879 4.59959L40.3222 6.43395H39.8513C38.8269 5.61259 37.9017 5.20192 37.0756 5.20192C35.3573 5.20192 34.176 6.37919 33.5316 8.73374C33.0194 10.6137 32.7633 14.83 32.7633 21.3826V39.2882L32.5155 39.5346H29.6406L29.3432 39.2882L14.2999 12.3477C13.7877 11.4533 13.1268 10.3126 12.3172 8.92539V21.3005C12.3172 25.9183 12.2098 29.1764 11.995 31.0746C11.7803 32.9729 11.3342 34.5882 10.6568 35.9206C9.28542 38.6402 7.0632 40 3.99009 40C2.83354 40 1.87526 39.6441 1.11524 38.9322C0.371747 38.2021 0 37.3443 0 36.3587C0 35.5738 0.536968 34.6429 1.6109 33.5661C2.00743 33.1645 2.6518 32.4892 3.54399 31.54L3.99009 31.7043C4.58488 32.9637 5.27881 33.5934 6.07187 33.5934C6.96406 33.5934 7.74886 33.1189 8.42627 32.1697C9.20281 31.0746 9.69021 29.5049 9.88848 27.4606C10.0372 25.9822 10.1446 23.144 10.2107 18.9459L10.3098 11.5264V6.2423C9.43412 4.96464 8.74019 4.13415 8.228 3.75086C7.73234 3.3493 7.04667 3.09377 6.171 2.98426C5.31185 2.87474 4.67575 2.77436 4.2627 2.68309L4.01487 2.40931V0.903491L4.28748 0.657084C6.27014 0.766598 7.75712 0.821355 8.74845 0.821355C9.93804 0.821355 12.2511 0.766598 15.6877 0.657084C16.4312 2.62834 18.3808 6.52521 21.5366 12.3477C24.8575 18.4257 27.881 23.6277 30.6072 27.9535C30.6072 19.4296 30.6402 14.2186 30.7063 12.3203C30.8055 9.32695 31.1028 7.08191 31.5985 5.58522C32.1272 3.97901 33.0525 2.64659 34.3742 1.58795C35.7125 0.529318 37.1169 0 38.5874 0C39.7109 0 40.6278 0.219028 41.3383 0.657084C42.0487 1.07689 42.404 1.62446 42.404 2.29979ZM50.5328 20.4791C50.5328 16.7739 49.9959 14.3828 48.9219 13.306C48.3932 12.7766 47.6828 12.512 46.7906 12.512C45.3201 12.512 44.271 13.1964 43.6431 14.5654C43.0318 15.916 42.7261 18.0881 42.7261 21.0815C42.7261 26.2104 44.0644 28.7748 46.741 28.7748C48.5089 28.7748 49.6406 27.561 50.1363 25.1335C50.4007 23.8558 50.5328 22.3044 50.5328 20.4791Z" fill="white"/>
<path d="M80 39.206L79.7274 39.5346C77.4143 39.3703 74.589 39.2882 71.2515 39.2882C67.9967 39.2882 64.5684 39.3703 60.9665 39.5346L60.6939 39.2334V37.5633L60.9913 37.2895C61.834 37.18 62.6518 37.0888 63.4449 37.0157C64.8658 36.888 65.7745 36.7328 66.171 36.5503C66.4519 36.4043 66.6914 36.0666 66.8897 35.5373C67.2036 34.6794 67.3606 31.2115 67.3606 25.1335V18.3162C67.3606 16.272 67.3275 13.6801 67.2615 10.5407L67.2119 8.48734C67.2119 7.57472 67.0384 7.11841 66.6914 7.11841C66.5427 7.11841 66.0553 7.32831 65.2292 7.74812C62.9657 8.89802 61.0244 9.91102 59.4052 10.7871L59.1078 10.5955C59.0087 9.5551 58.8352 8.39608 58.5874 7.11841L58.6121 6.89938C63.1722 5.4757 68.2693 3.56833 73.9033 1.17728L74.4238 1.58795C74.3577 2.66484 74.2668 4.26192 74.1512 6.37919C74.1016 7.1823 74.052 9.33607 74.0025 12.8405L73.9281 23.6003C73.9281 31.3028 74.0438 35.4369 74.2751 36.0027C74.4403 36.4225 74.6881 36.6781 75.0186 36.7693C75.6134 36.9519 77.1665 37.1161 79.6778 37.2621L80 37.5359V39.206Z" fill="white"/>
</g>
<defs>
<filter id="filter0_d_1260_3157" x="0" y="0" width="80" height="41" filterUnits="userSpaceOnUse" color-interpolation-filters="sRGB">
<feFlood flood-opacity="0" result="BackgroundImageFix"/>
<feColorMatrix in="SourceAlpha" type="matrix" values="0 0 0 0 0 0 0 0 0 0 0 0 0 0 0 0 0 0 127 0" result="hardAlpha"/>
<feOffset dy="1"/>
<feComposite in2="hardAlpha" operator="out"/>
<feColorMatrix type="matrix" values="0 0 0 0 0 0 0 0 0 0 0 0 0 0 0 0 0 0 0.12 0"/>
<feBlend mode="normal" in2="BackgroundImageFix" result="effect1_dropShadow_1260_3157"/>
<feBlend mode="normal" in="SourceGraphic" in2="effect1_dropShadow_1260_3157" result="shape"/>
</filter>
</defs>
</svg>
