<svg width="201" height="127" viewBox="0 0 201 127" fill="none" xmlns="http://www.w3.org/2000/svg">
<path d="M0.646447 122.646C0.451184 122.842 0.451184 123.158 0.646447 123.354L3.82843 126.536C4.02369 126.731 4.34027 126.731 4.53553 126.536C4.7308 126.34 4.7308 126.024 4.53553 125.828L1.70711 123L4.53553 120.172C4.7308 119.976 4.7308 119.66 4.53553 119.464C4.34027 119.269 4.02369 119.269 3.82843 119.464L0.646447 122.646ZM1 123C1 123.5 1.00004 123.5 1.00009 123.5C1.00012 123.5 1.00018 123.5 1.00022 123.5C1.00032 123.5 1.00045 123.5 1.00059 123.5C1.00089 123.5 1.00128 123.5 1.00176 123.5C1.00273 123.5 1.00408 123.5 1.00582 123.5C1.00928 123.5 1.01427 123.5 1.02076 123.5C1.03374 123.5 1.05275 123.5 1.07766 123.499C1.12748 123.499 1.20091 123.498 1.297 123.496C1.48917 123.492 1.77197 123.484 2.13771 123.469C2.86915 123.438 3.93249 123.376 5.26612 123.252L5.17364 122.256C3.85805 122.378 2.81145 122.439 2.09526 122.47C1.73717 122.485 1.46174 122.492 1.27662 122.496C1.18407 122.498 1.1141 122.499 1.06767 122.5C1.04446 122.5 1.02713 122.5 1.01581 122.5C1.01015 122.5 1.006 122.5 1.00336 122.5C1.00204 122.5 1.0011 122.5 1.00054 122.5C1.00026 122.5 1.00007 122.5 0.999981 122.5C0.999936 122.5 0.999916 122.5 0.999919 122.5C0.99992 122.5 0.999941 122.5 0.999941 122.5C0.999968 122.5 1 122.5 1 123ZM9.47266 122.746C11.9024 122.389 14.7384 121.863 17.8208 121.088L17.577 120.118C14.5312 120.884 11.7284 121.403 9.32734 121.756L9.47266 122.746ZM21.9259 119.942C24.5039 119.149 27.1936 118.179 29.916 116.993L29.5164 116.076C26.832 117.246 24.1779 118.203 21.6319 118.986L21.9259 119.942ZM33.7661 115.173C36.2252 113.915 38.6815 112.468 41.0772 110.8L40.506 109.98C38.1504 111.619 35.7333 113.044 33.3108 114.283L33.7661 115.173ZM44.4899 108.236C46.6458 106.488 48.7257 104.538 50.6835 102.366L49.9407 101.696C48.0196 103.828 45.9778 105.742 43.86 107.459L44.4899 108.236ZM53.4094 99.0851C55.0826 96.8981 56.6348 94.5157 58.0311 91.9207L57.1504 91.4469C55.7799 93.9942 54.2567 96.3319 52.6152 98.4775L53.4094 99.0851ZM59.9065 88.0881C61.0135 85.5894 61.9827 82.9157 62.7897 80.0548L61.8272 79.7834C61.0329 82.5994 60.0797 85.2284 58.9922 87.6831L59.9065 88.0881ZM63.8116 75.9228C64.3778 73.276 64.8121 70.4834 65.0984 67.5369L64.1031 67.4402C63.8203 70.3503 63.3917 73.1053 62.8337 75.7136L63.8116 75.9228ZM65.4018 63.2874C65.4668 61.8906 65.5 60.4617 65.5 59H64.5C64.5 60.4466 64.4671 61.86 64.4029 63.2409L65.4018 63.2874Z" fill="#211E1C"/>
<path d="M43.8047 7.875L43.3359 6.67969C43.7422 6.27344 44.2578 5.95312 44.8828 5.71875C45.5078 5.46875 46.125 5.34375 46.7344 5.34375C49.375 5.34375 50.6953 7.625 50.6953 12.1875C50.6953 12.8125 50.6562 13.7344 50.5781 14.9531C50.5156 16.1719 50.4844 17.0859 50.4844 17.6953C50.3594 18.1797 50.1172 18.4219 49.7578 18.4219C49.4766 18.4219 49.2188 18.2812 48.9844 18C48.75 17.7188 48.6328 17.4062 48.6328 17.0625C48.6328 16.9531 48.6406 16.875 48.6562 16.8281C47.6875 17.7656 46.6562 18.2344 45.5625 18.2344C44.7344 18.2344 44.0078 17.9375 43.3828 17.3438C42.7734 16.7344 42.4688 16 42.4688 15.1406C42.4688 13.6875 43.0312 12.375 44.1562 11.2031C45.2969 10.0312 46.5859 9.44531 48.0234 9.44531C48.0859 9.44531 48.1484 9.45312 48.2109 9.46875C48.2734 9.46875 48.3438 9.47656 48.4219 9.49219C48.5156 9.50781 48.5859 9.51562 48.6328 9.51562C48.5078 7.6875 47.7812 6.77344 46.4531 6.77344C45.6719 6.77344 44.7891 7.14062 43.8047 7.875ZM48.7031 15.2109C48.7344 14.1172 48.75 13.2891 48.75 12.7266C48.75 12.2578 48.7344 11.6016 48.7031 10.7578H48.5156C47.4062 10.7734 46.3906 11.1875 45.4688 12C44.5625 12.8125 44.1094 13.7969 44.1094 14.9531C44.1094 15.4531 44.2578 15.8516 44.5547 16.1484C44.8672 16.4453 45.2422 16.5938 45.6797 16.5938C46.3672 16.5938 47.375 16.1328 48.7031 15.2109ZM51.0459 20.1094L50.6709 19.1016C51.1866 18.8984 51.6553 18.5781 52.0772 18.1406C52.4834 17.7031 52.8194 17.25 53.085 16.7812C53.3506 16.2969 53.5772 15.6953 53.7647 14.9766C53.9522 14.2578 54.085 13.6328 54.1631 13.1016C54.2569 12.5547 54.3272 11.8828 54.3741 11.0859C54.4209 10.2891 54.4444 9.69531 54.4444 9.30469C54.46 8.89844 54.4678 8.35938 54.4678 7.6875C54.4678 6.73438 54.5538 6.16406 54.7256 5.97656C54.9444 5.74219 56.1553 5.625 58.3584 5.625C60.0928 5.625 61.0772 5.61719 61.3116 5.60156C61.3428 11.9453 61.4209 16.0625 61.5459 17.9531C61.3897 18.4219 61.1163 18.6562 60.7256 18.6562C60.46 18.6562 60.2022 18.5469 59.9522 18.3281C59.7022 18.1094 59.5459 17.8438 59.4834 17.5312C59.4678 16.9219 59.46 16.0156 59.46 14.8125C59.46 14.2188 59.46 13.3203 59.46 12.1172C59.4756 10.9141 59.4834 10.0078 59.4834 9.39844C59.4834 8.27344 59.4756 7.42969 59.46 6.86719C58.8038 6.97656 58.1553 7.03906 57.5147 7.05469C56.8741 7.07031 56.4209 7.09375 56.1553 7.125C56.1084 7.64062 56.0694 8.40625 56.0381 9.42188C56.0069 10.4375 55.9756 11.3359 55.9444 12.1172C55.9288 12.8828 55.835 13.7578 55.6631 14.7422C55.4913 15.7109 55.2413 16.5391 54.9131 17.2266C54.6006 17.8984 54.1084 18.5 53.4366 19.0312C52.7803 19.5781 51.9834 19.9375 51.0459 20.1094ZM64.4747 6.11719L65.5294 6.35156C65.5606 6.85156 65.6075 7.4375 65.67 8.10938C65.7481 8.78125 65.8341 9.54688 65.9278 10.4062C66.5528 10.2188 67.1466 10.125 67.7091 10.125C68.3809 10.125 69.0059 10.2578 69.5841 10.5234C70.1622 10.7734 70.6544 11.1094 71.0606 11.5312C71.4669 11.9531 71.7872 12.4375 72.0216 12.9844C72.2559 13.5156 72.3731 14.0625 72.3731 14.625C72.3731 15.1719 72.2559 15.6719 72.0216 16.125C71.7872 16.5781 71.4747 16.9688 71.0841 17.2969C70.6934 17.6094 70.2403 17.8516 69.7247 18.0234C69.2091 18.2109 68.6622 18.3047 68.0841 18.3047C67.9747 18.3047 67.7325 18.2969 67.3575 18.2812C66.9825 18.2656 66.5841 18.2266 66.1622 18.1641C65.7559 18.1172 65.3888 18.0469 65.0606 17.9531C64.7325 17.8594 64.5606 17.7266 64.545 17.5547C64.545 17.2891 64.5372 16.9297 64.5216 16.4766C64.5216 16.0078 64.5138 15.4922 64.4981 14.9297C64.4981 14.3672 64.4903 13.7812 64.4747 13.1719C64.4591 12.5469 64.4434 11.9453 64.4278 11.3672C64.4278 10.7891 64.42 10.2578 64.4044 9.77344C64.4044 9.28906 64.4044 8.90625 64.4044 8.625C64.4044 7.75 64.4278 6.91406 64.4747 6.11719ZM66.1388 11.8594L65.9278 16.5703C66.5528 16.7891 67.1466 16.8984 67.7091 16.8984C68.1466 16.8984 68.545 16.8281 68.9044 16.6875C69.2794 16.5312 69.5919 16.3359 69.8419 16.1016C70.0919 15.8516 70.2872 15.5703 70.4278 15.2578C70.5684 14.9453 70.6388 14.6172 70.6388 14.2734C70.6388 13.9297 70.5684 13.6094 70.4278 13.3125C70.2872 13 70.0763 12.7266 69.795 12.4922C69.5138 12.2578 69.17 12.0781 68.7638 11.9531C68.3575 11.8125 67.8966 11.7422 67.3809 11.7422C67.2091 11.7422 67.0216 11.7578 66.8184 11.7891C66.6153 11.8047 66.3888 11.8281 66.1388 11.8594ZM71.9737 7.24219L71.7628 6.21094C73.8566 6.08594 77.1534 5.91406 81.6534 5.69531C82.0284 5.71094 82.3487 5.85156 82.6144 6.11719C82.88 6.38281 83.0128 6.66406 83.0128 6.96094C83.0128 7.42969 82.7003 7.69531 82.0753 7.75781L77.6925 7.54688C77.7706 8.71875 77.8097 10.4297 77.8097 12.6797C77.8253 14.9141 77.8566 16.5469 77.9034 17.5781C77.7628 18.0312 77.4894 18.2578 77.0831 18.2578C76.8175 18.2578 76.5597 18.1484 76.3097 17.9297C76.0597 17.7109 75.9034 17.4453 75.8409 17.1328C76.0597 13.2891 76.2862 10.0625 76.5206 7.45312L71.9737 7.24219ZM93.5353 15.7266L93.7697 16.7578C93.0822 17.0078 92.0588 17.2891 90.6994 17.6016C89.3556 17.8984 88.3556 18.0469 87.6994 18.0469C87.0275 18.0469 86.4416 17.8281 85.9416 17.3906C85.4416 16.9375 85.0666 16.3672 84.8166 15.6797C84.5666 14.9766 84.3791 14.2891 84.2541 13.6172C84.1447 12.9297 84.09 12.2578 84.09 11.6016C84.09 7.69531 85.8556 5.74219 89.3869 5.74219C90.2306 5.74219 90.9728 6.01562 91.6134 6.5625C92.2541 7.09375 92.5744 7.78906 92.5744 8.64844C92.5744 9.11719 92.4416 9.53125 92.1759 9.89062C91.9259 10.25 91.6134 10.5391 91.2384 10.7578C90.8791 10.9609 90.4103 11.1484 89.8322 11.3203C89.2697 11.4922 88.7697 11.6172 88.3322 11.6953C87.8947 11.7734 87.3713 11.8594 86.7619 11.9531C86.1525 12.0469 85.7306 12.1172 85.4963 12.1641C85.5119 12.6172 85.5353 13.0156 85.5666 13.3594C85.6134 13.7031 85.6916 14.0781 85.8009 14.4844C85.9259 14.875 86.0822 15.2031 86.2697 15.4688C86.4728 15.7188 86.7463 15.9297 87.09 16.1016C87.4338 16.2734 87.84 16.3594 88.3088 16.3594C88.8713 16.3594 89.5588 16.3125 90.3713 16.2188C91.1838 16.1094 91.9025 16 92.5275 15.8906C93.1681 15.7812 93.5041 15.7266 93.5353 15.7266ZM85.59 10.7109C87.715 10.1016 89.4572 9.46094 90.8166 8.78906C90.7072 8.27344 90.5588 7.89844 90.3713 7.66406C90.1838 7.42969 89.9025 7.3125 89.5275 7.3125C88.5744 7.3125 87.7072 7.64062 86.9259 8.29688C86.1603 8.95312 85.715 9.75781 85.59 10.7109ZM95.9484 5.67188L97.2609 5.90625C97.2609 6.23438 97.2687 6.47656 97.2844 6.63281C98.1437 6.08594 99.0109 5.8125 99.8859 5.8125C101.308 5.8125 102.417 6.42188 103.214 7.64062C104.011 8.85938 104.409 10.2422 104.409 11.7891C104.409 12.5703 104.347 13.3203 104.222 14.0391C104.112 14.7422 103.909 15.4688 103.612 16.2188C103.316 16.9531 102.855 17.5469 102.23 18C101.62 18.4375 100.878 18.6562 100.003 18.6562C99.175 18.6562 98.3781 18.4375 97.6125 18C97.675 20.7344 97.7297 22.7656 97.7766 24.0938C97.6359 24.5781 97.3625 24.8203 96.9562 24.8203C96.675 24.8203 96.4016 24.7031 96.1359 24.4688C95.8859 24.25 95.7297 23.9766 95.6672 23.6484L95.9484 5.67188ZM97.4719 8.15625L97.5422 15.7266C97.7297 16.1016 98.0187 16.4062 98.4094 16.6406C98.8 16.8594 99.2297 16.9688 99.6984 16.9688C100.308 16.9688 100.823 16.7734 101.245 16.3828C101.683 15.9922 101.987 15.4766 102.159 14.8359C102.347 14.1797 102.472 13.5703 102.534 13.0078C102.612 12.4453 102.652 11.8516 102.652 11.2266C102.652 8.57031 101.753 7.24219 99.9562 7.24219C99.3781 7.24219 98.8391 7.32812 98.3391 7.5C97.8547 7.65625 97.5656 7.875 97.4719 8.15625ZM114.276 6.11719L115.33 6.35156L115.869 17.7188C115.729 18.1875 115.455 18.4219 115.049 18.4219C114.768 18.4219 114.494 18.3047 114.229 18.0703C113.963 17.8516 113.799 17.5781 113.737 17.25C113.737 17.2031 113.807 15.8828 113.948 13.2891V13.1016C113.51 13.0703 112.862 13.0547 112.002 13.0547C110.705 13.0547 109.729 13.0156 109.073 12.9375C109.151 13.8438 109.252 15.3047 109.377 17.3203C109.237 17.8047 108.963 18.0469 108.557 18.0469C108.276 18.0469 108.002 17.9375 107.737 17.7188C107.487 17.4844 107.33 17.2031 107.268 16.875C107.315 16.0938 107.338 15.3125 107.338 14.5312C107.338 14.0312 107.33 13.2812 107.315 12.2812C107.299 11.2812 107.291 10.5391 107.291 10.0547C107.291 8.55469 107.338 7.29688 107.432 6.28125L108.487 6.53906C108.799 9.92969 108.963 11.6719 108.979 11.7656C111.651 11.9062 113.026 11.9766 113.104 11.9766C113.744 11.9766 114.065 11.9375 114.065 11.8594C114.065 11.5469 114.096 10.5547 114.158 8.88281C114.221 7.21094 114.26 6.28906 114.276 6.11719ZM119.572 7.875L119.103 6.67969C119.509 6.27344 120.025 5.95312 120.65 5.71875C121.275 5.46875 121.892 5.34375 122.501 5.34375C125.142 5.34375 126.462 7.625 126.462 12.1875C126.462 12.8125 126.423 13.7344 126.345 14.9531C126.283 16.1719 126.251 17.0859 126.251 17.6953C126.126 18.1797 125.884 18.4219 125.525 18.4219C125.243 18.4219 124.986 18.2812 124.751 18C124.517 17.7188 124.4 17.4062 124.4 17.0625C124.4 16.9531 124.408 16.875 124.423 16.8281C123.454 17.7656 122.423 18.2344 121.329 18.2344C120.501 18.2344 119.775 17.9375 119.15 17.3438C118.54 16.7344 118.236 16 118.236 15.1406C118.236 13.6875 118.798 12.375 119.923 11.2031C121.064 10.0312 122.353 9.44531 123.79 9.44531C123.853 9.44531 123.915 9.45312 123.978 9.46875C124.04 9.46875 124.111 9.47656 124.189 9.49219C124.283 9.50781 124.353 9.51562 124.4 9.51562C124.275 7.6875 123.548 6.77344 122.22 6.77344C121.439 6.77344 120.556 7.14062 119.572 7.875ZM124.47 15.2109C124.501 14.1172 124.517 13.2891 124.517 12.7266C124.517 12.2578 124.501 11.6016 124.47 10.7578H124.283C123.173 10.7734 122.158 11.1875 121.236 12C120.329 12.8125 119.876 13.7969 119.876 14.9531C119.876 15.4531 120.025 15.8516 120.322 16.1484C120.634 16.4453 121.009 16.5938 121.447 16.5938C122.134 16.5938 123.142 16.1328 124.47 15.2109ZM128.571 7.24219L128.36 6.21094C130.453 6.08594 133.75 5.91406 138.25 5.69531C138.625 5.71094 138.946 5.85156 139.211 6.11719C139.477 6.38281 139.61 6.66406 139.61 6.96094C139.61 7.42969 139.297 7.69531 138.672 7.75781L134.289 7.54688C134.368 8.71875 134.407 10.4297 134.407 12.6797C134.422 14.9141 134.453 16.5469 134.5 17.5781C134.36 18.0312 134.086 18.2578 133.68 18.2578C133.414 18.2578 133.157 18.1484 132.907 17.9297C132.657 17.7109 132.5 17.4453 132.438 17.1328C132.657 13.2891 132.883 10.0625 133.118 7.45312L128.571 7.24219ZM143.593 16.0547C143.593 16.3203 143.609 16.6719 143.64 17.1094C143.499 17.5938 143.226 17.8359 142.82 17.8359C142.538 17.8359 142.265 17.7266 141.999 17.5078C141.749 17.2734 141.593 16.9922 141.531 16.6641C141.577 15.3984 141.632 13.5469 141.695 11.1094C141.773 8.67188 141.827 7.02344 141.859 6.16406L142.937 5.97656C143.124 6.97656 143.242 8.30469 143.288 9.96094C143.335 11.6172 143.398 12.8516 143.476 13.6641C143.773 13.2266 144.617 12.0859 146.007 10.2422C147.398 8.39844 148.343 7.02344 148.843 6.11719C149.187 6.05469 149.406 6.02344 149.499 6.02344C149.796 6.02344 149.999 6.15625 150.109 6.42188C150.234 6.6875 150.312 7.1875 150.343 7.92188L150.788 17.5781C150.648 18.0469 150.374 18.2812 149.968 18.2812C149.687 18.2812 149.413 18.1719 149.148 17.9531C148.898 17.7188 148.742 17.4375 148.679 17.1094C148.695 16.5938 148.734 15.3359 148.796 13.3359C148.874 11.3203 148.937 9.89062 148.984 9.04688C146.312 12.0938 144.515 14.4297 143.593 16.0547ZM154.186 5.97656C156.608 5.46094 158.084 5.20312 158.616 5.20312C160.709 5.20312 161.756 6.10156 161.756 7.89844C161.756 8.52344 161.647 9.13281 161.428 9.72656C161.225 10.3047 160.967 10.6875 160.655 10.875C161.873 11.7031 162.483 12.8438 162.483 14.2969C162.483 15.6719 162.03 16.7422 161.123 17.5078C160.233 18.2734 159.053 18.6562 157.584 18.6562C155.834 18.6562 154.53 18.1875 153.67 17.25L154.186 5.97656ZM155.522 11.8594L155.733 16.6172C156.123 16.8047 156.569 16.8984 157.069 16.8984C158.037 16.8984 158.928 16.5938 159.741 15.9844C160.553 15.375 160.959 14.6641 160.959 13.8516C160.959 13.2891 160.741 12.7734 160.303 12.3047C159.866 11.8203 159.311 11.5781 158.639 11.5781C158.248 11.5781 157.209 11.6719 155.522 11.8594ZM155.287 7.03125L155.452 10.6406C155.686 10.6094 156.045 10.5859 156.53 10.5703C157.014 10.5547 157.405 10.5234 157.702 10.4766C157.998 10.4141 158.327 10.2969 158.686 10.125C159.045 9.9375 159.327 9.61719 159.53 9.16406C159.748 8.71094 159.897 8.11719 159.975 7.38281C159.819 6.91406 159.342 6.67969 158.545 6.67969C158.186 6.67969 157.623 6.73438 156.858 6.84375C156.092 6.95312 155.569 7.01562 155.287 7.03125ZM172.349 6.11719L173.404 6.35156L173.943 17.7188C173.802 18.1875 173.529 18.4219 173.122 18.4219C172.841 18.4219 172.568 18.3047 172.302 18.0703C172.037 17.8516 171.872 17.5781 171.81 17.25C171.81 17.2031 171.88 15.8828 172.021 13.2891V13.1016C171.583 13.0703 170.935 13.0547 170.076 13.0547C168.779 13.0547 167.802 13.0156 167.146 12.9375C167.224 13.8438 167.326 15.3047 167.451 17.3203C167.31 17.8047 167.037 18.0469 166.63 18.0469C166.349 18.0469 166.076 17.9375 165.81 17.7188C165.56 17.4844 165.404 17.2031 165.341 16.875C165.388 16.0938 165.412 15.3125 165.412 14.5312C165.412 14.0312 165.404 13.2812 165.388 12.2812C165.372 11.2812 165.365 10.5391 165.365 10.0547C165.365 8.55469 165.412 7.29688 165.505 6.28125L166.56 6.53906C166.872 9.92969 167.037 11.6719 167.052 11.7656C169.724 11.9062 171.099 11.9766 171.177 11.9766C171.818 11.9766 172.138 11.9375 172.138 11.8594C172.138 11.5469 172.169 10.5547 172.232 8.88281C172.294 7.21094 172.333 6.28906 172.349 6.11719ZM176.872 6.11719L177.926 6.35156C177.958 6.85156 178.004 7.4375 178.067 8.10938C178.145 8.78125 178.231 9.54688 178.325 10.4062C178.95 10.2188 179.543 10.125 180.106 10.125C180.778 10.125 181.403 10.2578 181.981 10.5234C182.559 10.7734 183.051 11.1094 183.458 11.5312C183.864 11.9531 184.184 12.4375 184.418 12.9844C184.653 13.5156 184.77 14.0625 184.77 14.625C184.77 15.1719 184.661 15.6719 184.442 16.125C184.239 16.5781 183.942 16.9688 183.551 17.2969C183.176 17.6094 182.723 17.8516 182.192 18.0234C181.676 18.2109 181.106 18.3047 180.481 18.3047C180.106 18.3047 179.708 18.2812 179.286 18.2344C178.864 18.2031 178.481 18.1562 178.137 18.0938C177.793 18.0312 177.504 17.9609 177.27 17.8828C177.051 17.7891 176.942 17.6875 176.942 17.5781C176.942 17.3281 176.934 16.9688 176.918 16.5C176.918 16.0312 176.911 15.5156 176.895 14.9531C176.895 14.3906 176.887 13.7969 176.872 13.1719C176.856 12.5469 176.84 11.9453 176.825 11.3672C176.825 10.7891 176.817 10.2656 176.801 9.79688C176.801 9.3125 176.801 8.92188 176.801 8.625C176.801 7.75 176.825 6.91406 176.872 6.11719ZM178.536 11.8594L178.325 16.5703C178.95 16.7891 179.543 16.8984 180.106 16.8984C180.543 16.8984 180.942 16.8281 181.301 16.6875C181.676 16.5312 181.989 16.3359 182.239 16.1016C182.489 15.8516 182.684 15.5703 182.825 15.2578C182.965 14.9453 183.036 14.6172 183.036 14.2734C183.036 13.9297 182.965 13.6094 182.825 13.3125C182.684 13 182.473 12.7266 182.192 12.4922C181.911 12.2578 181.567 12.0781 181.161 11.9531C180.754 11.8125 180.293 11.7422 179.778 11.7422C179.606 11.7422 179.418 11.7578 179.215 11.7891C179.012 11.8047 178.786 11.8281 178.536 11.8594ZM185.848 6.04688L186.903 6.28125C187.012 7.51562 187.129 9.07031 187.254 10.9453C187.379 12.8047 187.512 15 187.653 17.5312C187.512 18 187.239 18.2344 186.833 18.2344C186.551 18.2344 186.278 18.125 186.012 17.9062C185.762 17.6719 185.606 17.3906 185.543 17.0625C185.559 16.8281 185.567 16.4453 185.567 15.9141C185.583 15.3828 185.598 14.7734 185.614 14.0859C185.629 13.3984 185.645 12.6641 185.661 11.8828C185.676 11.1016 185.692 10.3438 185.708 9.60938C185.723 8.875 185.739 8.19531 185.754 7.57031C185.786 6.92969 185.817 6.42188 185.848 6.04688ZM192.644 3.42188L192.48 2.69531C192.855 2.74219 193.222 2.76562 193.582 2.76562C194.66 2.76562 195.652 2.46875 196.558 1.875C196.917 1.90625 197.222 2.01562 197.472 2.20312C197.722 2.39062 197.847 2.60938 197.847 2.85938C197.847 3.0625 197.777 3.22656 197.636 3.35156C197.496 3.47656 197.285 3.57031 197.003 3.63281C196.722 3.67969 196.488 3.71094 196.3 3.72656C196.113 3.72656 195.863 3.72656 195.55 3.72656C194.535 3.72656 193.566 3.625 192.644 3.42188ZM192.574 16.0547C192.574 16.3203 192.589 16.6719 192.621 17.1094C192.48 17.5938 192.207 17.8359 191.8 17.8359C191.519 17.8359 191.246 17.7266 190.98 17.5078C190.73 17.2734 190.574 16.9922 190.511 16.6641C190.558 15.3984 190.613 13.5469 190.675 11.1094C190.753 8.67188 190.808 7.02344 190.839 6.16406L191.917 5.97656C192.105 6.97656 192.222 8.30469 192.269 9.96094C192.316 11.6172 192.378 12.8516 192.457 13.6641C192.753 13.2266 193.597 12.0859 194.988 10.2422C196.378 8.39844 197.324 7.02344 197.824 6.11719C198.167 6.05469 198.386 6.02344 198.48 6.02344C198.777 6.02344 198.98 6.15625 199.089 6.42188C199.214 6.6875 199.292 7.1875 199.324 7.92188L199.769 17.5781C199.628 18.0469 199.355 18.2812 198.949 18.2812C198.667 18.2812 198.394 18.1719 198.128 17.9531C197.878 17.7188 197.722 17.4375 197.66 17.1094C197.675 16.5938 197.714 15.3359 197.777 13.3359C197.855 11.3203 197.917 9.89062 197.964 9.04688C195.292 12.0938 193.496 14.4297 192.574 16.0547ZM43.4766 29.9766C45.8984 29.4609 47.375 29.2031 47.9062 29.2031C50 29.2031 51.0469 30.1016 51.0469 31.8984C51.0469 32.5234 50.9375 33.1328 50.7188 33.7266C50.5156 34.3047 50.2578 34.6875 49.9453 34.875C51.1641 35.7031 51.7734 36.8438 51.7734 38.2969C51.7734 39.6719 51.3203 40.7422 50.4141 41.5078C49.5234 42.2734 48.3438 42.6562 46.875 42.6562C45.125 42.6562 43.8203 42.1875 42.9609 41.25L43.4766 29.9766ZM44.8125 35.8594L45.0234 40.6172C45.4141 40.8047 45.8594 40.8984 46.3594 40.8984C47.3281 40.8984 48.2188 40.5938 49.0312 39.9844C49.8438 39.375 50.25 38.6641 50.25 37.8516C50.25 37.2891 50.0312 36.7734 49.5938 36.3047C49.1562 35.8203 48.6016 35.5781 47.9297 35.5781C47.5391 35.5781 46.5 35.6719 44.8125 35.8594ZM44.5781 31.0312L44.7422 34.6406C44.9766 34.6094 45.3359 34.5859 45.8203 34.5703C46.3047 34.5547 46.6953 34.5234 46.9922 34.4766C47.2891 34.4141 47.6172 34.2969 47.9766 34.125C48.3359 33.9375 48.6172 33.6172 48.8203 33.1641C49.0391 32.7109 49.1875 32.1172 49.2656 31.3828C49.1094 30.9141 48.6328 30.6797 47.8359 30.6797C47.4766 30.6797 46.9141 30.7344 46.1484 30.8438C45.3828 30.9531 44.8594 31.0156 44.5781 31.0312ZM55.4756 31.875L55.0069 30.6797C55.4131 30.2734 55.9288 29.9531 56.5538 29.7188C57.1788 29.4688 57.7959 29.3438 58.4053 29.3438C61.0459 29.3438 62.3663 31.625 62.3663 36.1875C62.3663 36.8125 62.3272 37.7344 62.2491 38.9531C62.1866 40.1719 62.1553 41.0859 62.1553 41.6953C62.0303 42.1797 61.7881 42.4219 61.4288 42.4219C61.1475 42.4219 60.8897 42.2812 60.6553 42C60.4209 41.7188 60.3038 41.4062 60.3038 41.0625C60.3038 40.9531 60.3116 40.875 60.3272 40.8281C59.3584 41.7656 58.3272 42.2344 57.2334 42.2344C56.4053 42.2344 55.6788 41.9375 55.0538 41.3438C54.4444 40.7344 54.1397 40 54.1397 39.1406C54.1397 37.6875 54.7022 36.375 55.8272 35.2031C56.9678 34.0312 58.2569 33.4453 59.6944 33.4453C59.7569 33.4453 59.8194 33.4531 59.8819 33.4688C59.9444 33.4688 60.0147 33.4766 60.0928 33.4922C60.1866 33.5078 60.2569 33.5156 60.3038 33.5156C60.1788 31.6875 59.4522 30.7734 58.1241 30.7734C57.3428 30.7734 56.46 31.1406 55.4756 31.875ZM60.3741 39.2109C60.4053 38.1172 60.4209 37.2891 60.4209 36.7266C60.4209 36.2578 60.4053 35.6016 60.3741 34.7578H60.1866C59.0772 34.7734 58.0616 35.1875 57.1397 36C56.2334 36.8125 55.7803 37.7969 55.7803 38.9531C55.7803 39.4531 55.9288 39.8516 56.2256 40.1484C56.5381 40.4453 56.9131 40.5938 57.3506 40.5938C58.0381 40.5938 59.0459 40.1328 60.3741 39.2109ZM65.5059 29.6719L66.8184 29.9062C66.8184 30.2344 66.8263 30.4766 66.8419 30.6328C67.7013 30.0859 68.5684 29.8125 69.4434 29.8125C70.8653 29.8125 71.9747 30.4219 72.7716 31.6406C73.5684 32.8594 73.9669 34.2422 73.9669 35.7891C73.9669 36.5703 73.9044 37.3203 73.7794 38.0391C73.67 38.7422 73.4669 39.4688 73.17 40.2188C72.8731 40.9531 72.4122 41.5469 71.7872 42C71.1778 42.4375 70.4356 42.6562 69.5606 42.6562C68.7325 42.6562 67.9356 42.4375 67.17 42C67.2325 44.7344 67.2872 46.7656 67.3341 48.0938C67.1934 48.5781 66.92 48.8203 66.5138 48.8203C66.2325 48.8203 65.9591 48.7031 65.6934 48.4688C65.4434 48.25 65.2872 47.9766 65.2247 47.6484L65.5059 29.6719ZM67.0294 32.1562L67.0997 39.7266C67.2872 40.1016 67.5763 40.4062 67.9669 40.6406C68.3575 40.8594 68.7872 40.9688 69.2559 40.9688C69.8653 40.9688 70.3809 40.7734 70.8028 40.3828C71.2403 39.9922 71.545 39.4766 71.7169 38.8359C71.9044 38.1797 72.0294 37.5703 72.0919 37.0078C72.17 36.4453 72.2091 35.8516 72.2091 35.2266C72.2091 32.5703 71.3106 31.2422 69.5138 31.2422C68.9356 31.2422 68.3966 31.3281 67.8966 31.5C67.4122 31.6562 67.1231 31.875 67.0294 32.1562ZM78.8878 40.0547C78.8878 40.3203 78.9034 40.6719 78.9347 41.1094C78.7941 41.5938 78.5206 41.8359 78.1144 41.8359C77.8331 41.8359 77.5597 41.7266 77.2941 41.5078C77.0441 41.2734 76.8878 40.9922 76.8253 40.6641C76.8722 39.3984 76.9269 37.5469 76.9894 35.1094C77.0675 32.6719 77.1222 31.0234 77.1534 30.1641L78.2316 29.9766C78.4191 30.9766 78.5363 32.3047 78.5831 33.9609C78.63 35.6172 78.6925 36.8516 78.7706 37.6641C79.0675 37.2266 79.9113 36.0859 81.3019 34.2422C82.6925 32.3984 83.6378 31.0234 84.1378 30.1172C84.4816 30.0547 84.7003 30.0234 84.7941 30.0234C85.0909 30.0234 85.2941 30.1562 85.4034 30.4219C85.5284 30.6875 85.6066 31.1875 85.6378 31.9219L86.0831 41.5781C85.9425 42.0469 85.6691 42.2812 85.2628 42.2812C84.9816 42.2812 84.7081 42.1719 84.4425 41.9531C84.1925 41.7188 84.0363 41.4375 83.9738 41.1094C83.9894 40.5938 84.0284 39.3359 84.0909 37.3359C84.1691 35.3203 84.2316 33.8906 84.2784 33.0469C81.6066 36.0938 79.8097 38.4297 78.8878 40.0547ZM89.8088 31.875L89.34 30.6797C89.7463 30.2734 90.2619 29.9531 90.8869 29.7188C91.5119 29.4688 92.1291 29.3438 92.7384 29.3438C95.3791 29.3438 96.6994 31.625 96.6994 36.1875C96.6994 36.8125 96.6603 37.7344 96.5822 38.9531C96.5197 40.1719 96.4884 41.0859 96.4884 41.6953C96.3634 42.1797 96.1213 42.4219 95.7619 42.4219C95.4806 42.4219 95.2228 42.2812 94.9884 42C94.7541 41.7188 94.6369 41.4062 94.6369 41.0625C94.6369 40.9531 94.6447 40.875 94.6603 40.8281C93.6916 41.7656 92.6603 42.2344 91.5666 42.2344C90.7384 42.2344 90.0119 41.9375 89.3869 41.3438C88.7775 40.7344 88.4728 40 88.4728 39.1406C88.4728 37.6875 89.0353 36.375 90.1603 35.2031C91.3009 34.0312 92.59 33.4453 94.0275 33.4453C94.09 33.4453 94.1525 33.4531 94.215 33.4688C94.2775 33.4688 94.3478 33.4766 94.4259 33.4922C94.5197 33.5078 94.59 33.5156 94.6369 33.5156C94.5119 31.6875 93.7853 30.7734 92.4572 30.7734C91.6759 30.7734 90.7931 31.1406 89.8088 31.875ZM94.7072 39.2109C94.7384 38.1172 94.7541 37.2891 94.7541 36.7266C94.7541 36.2578 94.7384 35.6016 94.7072 34.7578H94.5197C93.4103 34.7734 92.3947 35.1875 91.4728 36C90.5666 36.8125 90.1134 37.7969 90.1134 38.9531C90.1134 39.4531 90.2619 39.8516 90.5588 40.1484C90.8713 40.4453 91.2463 40.5938 91.6838 40.5938C92.3713 40.5938 93.3791 40.1328 94.7072 39.2109ZM106.566 30.1172L107.62 30.3516L108.159 41.7188C108.019 42.1875 107.745 42.4219 107.339 42.4219C107.058 42.4219 106.784 42.3047 106.519 42.0703C106.253 41.8516 106.089 41.5781 106.027 41.25C106.027 41.2031 106.097 39.8828 106.237 37.2891V37.1016C105.8 37.0703 105.152 37.0547 104.292 37.0547C102.995 37.0547 102.019 37.0156 101.362 36.9375C101.441 37.8438 101.542 39.3047 101.667 41.3203C101.527 41.8047 101.253 42.0469 100.847 42.0469C100.566 42.0469 100.292 41.9375 100.027 41.7188C99.7766 41.4844 99.6203 41.2031 99.5578 40.875C99.6047 40.0938 99.6281 39.3125 99.6281 38.5312C99.6281 38.0312 99.6203 37.2812 99.6047 36.2812C99.5891 35.2812 99.5812 34.5391 99.5812 34.0547C99.5812 32.5547 99.6281 31.2969 99.7219 30.2812L100.777 30.5391C101.089 33.9297 101.253 35.6719 101.269 35.7656C103.941 35.9062 105.316 35.9766 105.394 35.9766C106.034 35.9766 106.355 35.9375 106.355 35.8594C106.355 35.5469 106.386 34.5547 106.448 32.8828C106.511 31.2109 106.55 30.2891 106.566 30.1172ZM110.268 31.2422L110.057 30.2109C112.151 30.0859 115.448 29.9141 119.948 29.6953C120.323 29.7109 120.643 29.8516 120.908 30.1172C121.174 30.3828 121.307 30.6641 121.307 30.9609C121.307 31.4297 120.994 31.6953 120.369 31.7578L115.987 31.5469C116.065 32.7188 116.104 34.4297 116.104 36.6797C116.119 38.9141 116.151 40.5469 116.198 41.5781C116.057 42.0312 115.783 42.2578 115.377 42.2578C115.112 42.2578 114.854 42.1484 114.604 41.9297C114.354 41.7109 114.198 41.4453 114.135 41.1328C114.354 37.2891 114.58 34.0625 114.815 31.4531L110.268 31.2422Z" fill="#211E1C"/>
</svg>
