<svg width="962" height="576" viewBox="0 0 962 576" fill="none" xmlns="http://www.w3.org/2000/svg">
<circle cx="481" cy="288" r="288" fill="url(#paint0_linear_2276_23934)"/>
<path d="M1 32L961 544" stroke="#648623" stroke-opacity="0.16"/>
<path d="M961 32L1 544" stroke="#648623" stroke-opacity="0.16"/>
<circle cx="481" cy="288" r="114" fill="#F6F2EE"/>
<path d="M498.936 306.42C496.314 298.545 492.104 293.386 487.278 290.071L487.431 289.953C499.966 281.388 500.69 266.233 500.207 260.598C498.759 244.212 485.034 233.931 464.325 235.161L464.016 235.198C459.663 235.713 449.021 236.974 445.017 231C444.309 263.772 466.465 273.325 485.742 270.378C487.431 244.212 455.636 244.212 455.636 244.212C479 239.808 490.811 251.612 492.5 261.327C493.465 266.961 492.5 276.741 487.19 282.861C485.677 284.571 483.919 286.036 481.98 287.209C477.107 285.196 471.988 284.562 467.447 284.562V285.63C476.361 285.63 479.788 293.629 485.565 307.489V307.521C485.951 308.448 486.349 309.432 486.765 310.462L486.78 310.501C492.572 324.843 501.923 348 533 348V347.206C512.762 347.206 505.347 325.331 499.378 307.724L498.936 306.42Z" fill="url(#paint1_linear_2276_23934)"/>
<path d="M454.188 295.086C457.171 296.863 460.438 298.107 463.842 298.761V320.037H454.188V295.086Z" fill="url(#paint2_linear_2276_23934)"/>
<path d="M454.188 289.703V266.718C457.809 269.163 460.447 270.863 463.842 271.576V291.758C466.932 291.847 470.025 291.465 473.014 290.617C474.091 291.959 474.984 293.44 475.669 295.021C473.508 295.304 471.332 295.466 469.153 295.507C464.639 295.595 460.157 294.727 455.999 292.958C451.841 291.19 448.099 288.56 445.017 285.241V284.335C447.713 286.253 450.809 288.276 454.188 289.703Z" fill="url(#paint3_linear_2276_23934)"/>
<defs>
<linearGradient id="paint0_linear_2276_23934" x1="193" y1="0" x2="769" y2="0" gradientUnits="userSpaceOnUse">
<stop stop-color="#C3D54E"/>
<stop offset="1" stop-color="#A1C74F"/>
</linearGradient>
<linearGradient id="paint1_linear_2276_23934" x1="445" y1="231" x2="533" y2="231" gradientUnits="userSpaceOnUse">
<stop stop-color="#C3D54E"/>
<stop offset="1" stop-color="#A1C74F"/>
</linearGradient>
<linearGradient id="paint2_linear_2276_23934" x1="445" y1="231" x2="533" y2="231" gradientUnits="userSpaceOnUse">
<stop stop-color="#C3D54E"/>
<stop offset="1" stop-color="#A1C74F"/>
</linearGradient>
<linearGradient id="paint3_linear_2276_23934" x1="445" y1="231" x2="533" y2="231" gradientUnits="userSpaceOnUse">
<stop stop-color="#C3D54E"/>
<stop offset="1" stop-color="#A1C74F"/>
</linearGradient>
</defs>
</svg>
