<svg width="72" height="32" viewBox="0 0 72 32" fill="none" xmlns="http://www.w3.org/2000/svg">
<path d="M27.3365 0.409889L17.9104 22.8629H11.7602L7.12111 4.94345C6.84022 3.8423 6.59565 3.43701 5.73964 2.97158C4.34071 2.21285 2.0306 1.50323 0 1.06167L0.136997 0.409889H10.0381C11.2982 0.409889 12.4328 1.24757 12.721 2.69801L15.1722 15.6919L21.2236 0.409889H27.3365ZM35.6506 0.409889L30.8401 22.8629H25.0218L29.8324 0.409889H35.6506ZM51.4329 15.5322C51.4573 9.60737 43.2278 9.27872 43.2816 6.6312C43.3013 5.82657 44.0691 4.96961 45.7498 4.75067C46.5824 4.64326 48.8824 4.55743 51.4876 5.75588L52.5068 0.991903C51.107 0.486542 49.3058 0 47.0651 0C41.3135 0 37.2675 3.05007 37.2353 7.42114C37.1976 10.6544 40.1251 12.4564 42.3267 13.5332C44.5945 14.633 45.3549 15.3398 45.3443 16.3226C45.3282 17.829 43.5335 18.4959 41.8647 18.5207C38.9385 18.5671 37.2422 17.7312 35.8892 17.1019L34.8332 22.0238C36.1945 22.6467 38.7032 23.1879 41.3015 23.2154C47.4158 23.2154 51.415 20.2002 51.4329 15.5322ZM66.6208 22.8629H72L67.3002 0.409889H62.3371C61.2177 0.409889 60.2771 1.05846 59.8596 2.05587L51.1295 22.8629H57.2392L58.451 19.509H65.9156L66.6208 22.8629ZM60.1263 14.9079L63.1899 6.47606L64.9497 14.9079H60.1263ZM43.0966 29.0432H40.7327V31.24H43.377V31.9005H39.936V25.8059H43.2414V26.4664H40.7327V28.3919H43.0966V29.0432ZM44.5983 25.4808H45.395V31.9004H44.5983V25.4808ZM47.4048 29.8567C47.4227 30.9331 48.1022 31.376 48.9076 31.376C49.4786 31.376 49.8316 31.2764 50.1217 31.1502L50.2665 31.7198C49.9856 31.8461 49.497 31.9998 48.7991 31.9998C47.4503 31.9998 46.6444 31.1048 46.6444 29.7847C46.6444 28.4646 47.4227 27.4337 48.6998 27.4337C50.1397 27.4337 50.5111 28.6817 50.5111 29.4863C50.5111 29.6488 50.5019 29.7663 50.4835 29.8567H47.4048ZM49.7411 29.2871C49.7503 28.79 49.5328 28.0033 48.6364 28.0033C47.8213 28.0033 47.4769 28.7359 47.4135 29.2871H49.7411ZM54.8469 31.7466C54.6387 31.8462 54.1767 32 53.5882 32C52.2661 32 51.4059 31.1049 51.4059 29.7665C51.4059 28.4193 52.329 27.4339 53.7602 27.4339C54.2309 27.4339 54.6474 27.5509 54.8649 27.6689L54.6842 28.2747C54.4934 28.1751 54.1946 28.0664 53.7602 28.0664C52.7547 28.0664 52.2118 28.8168 52.2118 29.7215C52.2118 30.7341 52.8637 31.3579 53.733 31.3579C54.1859 31.3579 54.4847 31.2495 54.7109 31.1499L54.8469 31.7466ZM57.0823 26.4753V27.5241H58.2228V28.1295H57.0823V30.4897C57.0823 31.0327 57.2363 31.3398 57.6799 31.3398C57.8969 31.3398 58.0242 31.3219 58.1419 31.2852L58.1782 31.8915C58.0242 31.9457 57.7797 31.9998 57.4716 31.9998C57.1002 31.9998 56.8014 31.8731 56.6115 31.6657C56.3941 31.421 56.3035 31.0327 56.3035 30.5172V28.1295H55.624V27.5241H56.3035V26.7103L57.0823 26.4753ZM59.336 28.8895C59.336 28.3741 59.3264 27.9311 59.2997 27.524H59.9971L60.0334 28.392H60.0601C60.2596 27.8044 60.7483 27.4336 61.2825 27.4336C61.3643 27.4336 61.4277 27.4428 61.5004 27.4515V28.2024C61.4186 28.184 61.3376 28.184 61.2282 28.184C60.6674 28.184 60.2683 28.5999 60.1598 29.1971C60.1419 29.3054 60.1327 29.4408 60.1327 29.5679V31.9006H59.336V28.8895ZM66.3984 29.676C66.3984 31.2945 65.2661 32 64.2156 32C63.0383 32 62.1152 31.1315 62.1152 29.7486C62.1152 28.2926 63.0838 27.4338 64.2883 27.4338C65.547 27.4338 66.3984 28.3468 66.3984 29.676ZM62.9298 29.7215C62.9298 30.6799 63.4732 31.4033 64.252 31.4033C65.0128 31.4033 65.5829 30.6886 65.5829 29.7031C65.5829 28.9618 65.2119 28.0301 64.2699 28.0301C63.3376 28.0301 62.9298 28.8985 62.9298 29.7215ZM67.6195 28.7084C67.6195 28.2476 67.6099 27.8859 67.5832 27.5242H68.2893L68.3349 28.2476H68.3528C68.5702 27.8404 69.0773 27.4338 69.8018 27.4338C70.4082 27.4338 71.3502 27.7955 71.3502 29.2959V31.9003H70.5535V29.3776C70.5535 28.6726 70.291 28.0846 69.5393 28.0846C69.0231 28.0846 68.6153 28.4555 68.4709 28.8984C68.4342 28.998 68.4162 29.1334 68.4162 29.2693V31.9003H67.6195V28.7084Z" fill="#1A1F71"/>
</svg>
