<svg width="1024" height="576" viewBox="0 0 1024 576" fill="none" xmlns="http://www.w3.org/2000/svg">
<rect width="1024" height="576" rx="4" fill="#EEE5DC"/>
<path d="M32 32L992 544" stroke="#595450" stroke-opacity="0.16"/>
<path d="M992 32L32 544" stroke="#595450" stroke-opacity="0.16"/>
<circle cx="512" cy="288" r="96" fill="#EEE5DC"/>
<path d="M550.872 315.766C546.551 302.843 539.615 294.378 531.663 288.936L531.915 288.744C552.569 274.688 553.762 249.818 552.967 240.571C550.581 213.682 527.965 196.809 493.843 198.829L493.332 198.889C486.16 199.735 468.626 201.803 462.027 192C460.861 245.779 497.369 261.456 529.132 256.62C531.915 213.682 479.526 213.682 479.526 213.682C518.023 206.455 537.483 225.825 540.267 241.767C541.858 251.013 540.267 267.062 531.518 277.106C529.024 279.912 526.128 282.315 522.933 284.241C514.903 280.937 506.468 279.896 498.986 279.896V281.649C513.675 281.649 519.322 294.775 528.84 317.52V317.573C529.476 319.094 530.131 320.71 530.817 322.399L530.843 322.464C540.386 345.999 555.794 384 607 384V382.698C573.654 382.698 561.435 346.8 551.601 317.906L550.872 315.766Z" fill="#595450" fill-opacity="0.08"/>
<path d="M477.14 297.167C482.055 300.083 487.437 302.124 493.047 303.198V338.113H477.14V297.167Z" fill="#595450" fill-opacity="0.08"/>
<path d="M477.14 288.333V250.615C483.105 254.627 487.453 257.417 493.047 258.586V291.705C498.138 291.852 503.234 291.225 508.16 289.833C509.934 292.036 511.405 294.466 512.534 297.06C508.973 297.524 505.388 297.79 501.797 297.858C494.36 298.002 486.975 296.577 480.124 293.675C473.272 290.773 467.106 286.458 462.027 281.012V279.524C466.47 282.672 471.572 285.991 477.14 288.333Z" fill="#595450" fill-opacity="0.08"/>
</svg>
