<svg width="64" height="81" viewBox="0 0 64 81" fill="none" xmlns="http://www.w3.org/2000/svg">
<path fill-rule="evenodd" clip-rule="evenodd" d="M24.7272 39.4686C27.0064 38.5741 29.0426 37.2041 30.6837 35.4608C34.5455 31.2759 35.2476 24.589 34.5455 20.7362C33.3167 14.0935 24.7272 6.02269 7.73553 9.03404C7.73553 9.03404 30.8592 9.03404 29.6305 26.925C15.6112 28.9399 -0.502872 22.408 0.012028 0C2.99611 4.18489 11.0473 3.17741 14.0548 2.84528C29.1156 2.00387 39.0976 9.03404 40.1508 20.238C40.5019 24.0908 39.9753 34.4534 30.8592 40.31C29.7924 41.0847 28.6091 41.7041 27.3486 42.1478C26.6072 41.1429 25.721 40.2411 24.7155 39.4686" fill="url(#paint0_linear_1260_3152)"/>
<g filter="url(#filter0_d_1260_3152)">
<path fill-rule="evenodd" clip-rule="evenodd" d="M6.6825 43.8194C8.85195 45.0345 11.2275 45.8848 13.7039 46.3326V60.8801H6.6825V43.8194Z" fill="url(#paint1_linear_1260_3152)" shape-rendering="crispEdges"/>
<path fill-rule="evenodd" clip-rule="evenodd" d="M10.7081 41.3172C9.31725 41.0962 7.96357 40.7016 6.6825 40.1436V24.4226C9.31551 26.0943 11.2347 27.2568 13.7039 27.7439V41.6493C12.7013 41.6152 11.7033 41.5041 10.7198 41.3172" fill="url(#paint2_linear_1260_3152)" shape-rendering="crispEdges"/>
<path fill-rule="evenodd" clip-rule="evenodd" d="M29.5016 52.3C25.3005 42.8231 22.8079 37.354 16.3249 37.354V36.6233C24.3409 36.6233 34.8379 39.1807 39.2262 51.5693C43.6263 63.7476 48.9157 79.4575 64 79.4575V80C39.7528 80 33.6911 61.7769 29.5016 52.3222" fill="url(#paint3_linear_1260_3152)" shape-rendering="crispEdges"/>
</g>
<path fill-rule="evenodd" clip-rule="evenodd" d="M0.0119629 37.0882C2.25378 39.3576 4.97518 41.1553 7.99935 42.3646C11.0235 43.5738 14.2828 44.1676 17.5654 44.1073C19.1505 44.0793 20.7327 43.9684 22.3048 43.7752C21.8063 42.6943 21.1569 41.6815 20.3739 40.7639C17.238 41.6 13.9461 41.7738 10.7313 41.2731C6.68226 40.6421 3.00775 38.4721 0.0119629 36.4683V37.0882Z" fill="url(#paint4_linear_1260_3152)"/>
<defs>
<filter id="filter0_d_1260_3152" x="6.6825" y="24.4226" width="57.3175" height="56.5774" filterUnits="userSpaceOnUse" color-interpolation-filters="sRGB">
<feFlood flood-opacity="0" result="BackgroundImageFix"/>
<feColorMatrix in="SourceAlpha" type="matrix" values="0 0 0 0 0 0 0 0 0 0 0 0 0 0 0 0 0 0 127 0" result="hardAlpha"/>
<feOffset dy="1"/>
<feComposite in2="hardAlpha" operator="out"/>
<feColorMatrix type="matrix" values="0 0 0 0 0 0 0 0 0 0 0 0 0 0 0 0 0 0 0.08 0"/>
<feBlend mode="normal" in2="BackgroundImageFix" result="effect1_dropShadow_1260_3152"/>
<feBlend mode="normal" in="SourceGraphic" in2="effect1_dropShadow_1260_3152" result="shape"/>
</filter>
<linearGradient id="paint0_linear_1260_3152" x1="2.26167" y1="26.1629" x2="42.6065" y2="26.1629" gradientUnits="userSpaceOnUse">
<stop stop-color="#F9E849"/>
<stop offset="1" stop-color="#A1C74F"/>
</linearGradient>
<linearGradient id="paint1_linear_1260_3152" x1="35.3412" y1="24.4226" x2="35.3412" y2="80" gradientUnits="userSpaceOnUse">
<stop stop-color="white"/>
<stop offset="1" stop-color="white" stop-opacity="0.24"/>
</linearGradient>
<linearGradient id="paint2_linear_1260_3152" x1="35.3412" y1="24.4226" x2="35.3412" y2="80" gradientUnits="userSpaceOnUse">
<stop stop-color="white"/>
<stop offset="1" stop-color="white" stop-opacity="0.24"/>
</linearGradient>
<linearGradient id="paint3_linear_1260_3152" x1="35.3412" y1="24.4226" x2="35.3412" y2="80" gradientUnits="userSpaceOnUse">
<stop stop-color="white"/>
<stop offset="1" stop-color="white" stop-opacity="0.24"/>
</linearGradient>
<linearGradient id="paint4_linear_1260_3152" x1="0.730483" y1="41.7326" x2="22.8724" y2="41.7326" gradientUnits="userSpaceOnUse">
<stop stop-color="#DDCF49"/>
<stop offset="0.87" stop-color="#9EC650"/>
<stop offset="1" stop-color="#9EC650"/>
</linearGradient>
</defs>
</svg>
